<svg width="192" height="11" viewBox="0 0 192 11" fill="none" xmlns="http://www.w3.org/2000/svg">
<path d="M191.398 6.16069C191.678 6.12494 191.581 6.5095 191.625 6.57878C191.155 6.49576 191.409 6.0605 191.398 6.16069Z" fill="url(#paint0_linear_40_85)"/>
<path d="M186.741 5.30401L186.825 5.46032L186.136 5.07892L186.741 5.30401Z" fill="url(#paint1_linear_40_85)"/>
<path d="M182.397 5.32357C182.801 4.6696 183.973 5.42356 184.744 5.18942L184.87 5.04029L185.225 5.5646C184.286 5.36424 183.341 5.28363 182.397 5.32357Z" fill="url(#paint2_linear_40_85)"/>
<path d="M180.097 6.74318C180.236 6.48777 179.593 6.52495 180.636 6.66125C180.603 6.67993 180.571 6.70149 180.539 6.72589C180.445 6.72249 180.316 6.72344 180.097 6.74318Z" fill="url(#paint3_linear_40_85)"/>
<path d="M180.539 6.72652C180.994 6.74278 180.243 6.94158 180.539 6.72652Z" fill="url(#paint4_linear_40_85)"/>
<path d="M178.425 6.59053L179.03 6.81319C178.906 6.96431 178.371 7.00051 178.571 7.10912C177.951 6.98964 178.076 6.83949 178.425 6.59053Z" fill="url(#paint5_linear_40_85)"/>
<path d="M177.847 6.11914L178.159 6.21394C178.105 6.27587 178.023 6.29417 177.847 6.11914Z" fill="url(#paint6_linear_40_85)"/>
<path d="M178.826 6.40852L178.161 6.20984C178.247 6.10836 178.254 5.89189 178.466 6.28035C178.409 6.09028 178.542 6.27532 178.826 6.40852Z" fill="url(#paint7_linear_40_85)"/>
<path d="M179.199 6.30844C179.536 6.1637 179.971 6.07221 179.363 5.85051C180.517 5.93591 180.353 6.39484 179.199 6.30844Z" fill="url(#paint8_linear_40_85)"/>
<path d="M182.166 4.64556L182.615 4.45284L183.009 4.66981C182.813 4.56613 182.141 4.85402 182.166 4.64556Z" fill="url(#paint9_linear_40_85)"/>
<path d="M174.674 6.9513C174.635 6.81296 174.872 6.57996 174.915 6.40221L175.362 6.55967C175.135 6.65555 174.702 6.74581 174.674 6.9513Z" fill="url(#paint10_linear_40_85)"/>
<path d="M174.915 6.40408L174.246 6.16982C174.84 6.13371 174.95 6.25046 174.915 6.40408Z" fill="url(#paint11_linear_40_85)"/>
<path d="M177.731 5.39279L178.831 5.88734L177.517 5.38763L177.731 5.39279Z" fill="url(#paint12_linear_40_85)"/>
<path d="M172.131 6.98539L172.512 7.30414L171.833 6.82245L172.131 6.98539Z" fill="url(#paint13_linear_40_85)"/>
<path d="M170.442 6.93825C170.725 7.20248 170.065 7.39098 170.362 7.55395C169.949 7.48984 169.542 7.32842 169.154 7.07442C169.586 7.18986 170.026 7.14319 170.442 6.93825Z" fill="url(#paint14_linear_40_85)"/>
<path d="M168.558 6.7832C168.761 6.86127 168.961 6.96023 169.157 7.07922C168.951 7.02294 168.75 6.92339 168.558 6.7832Z" fill="url(#paint15_linear_40_85)"/>
<path d="M173.112 6.24082C172.977 6.48272 172.791 6.62608 172.593 6.64081L172.849 6.24723L173.112 6.24082Z" fill="url(#paint16_linear_40_85)"/>
<path d="M172.859 6.23881L172.849 6.2502L172.284 6.27594L172.859 6.23881Z" fill="url(#paint17_linear_40_85)"/>
<path d="M173.177 6.24148L173.112 6.24259C173.136 6.20417 173.151 6.19092 173.177 6.24148Z" fill="url(#paint18_linear_40_85)"/>
<path d="M175.988 5.75939C175.594 5.54206 174.775 5.31293 175.56 4.97555C175.844 5.23875 175.395 5.43042 175.988 5.75939Z" fill="url(#paint19_linear_40_85)"/>
<path d="M173.497 5.74999L174.203 5.65497C174.19 5.7552 174.065 5.91061 174.26 6.01831L173.497 5.74999Z" fill="url(#paint20_linear_40_85)"/>
<path d="M173.15 5.62775L173.497 5.74883L173.236 5.78451L173.15 5.62775Z" fill="url(#paint21_linear_40_85)"/>
<path d="M169.766 6.40951C169.432 6.26386 169.088 6.19533 168.745 6.20515C169.149 6.12635 169.556 6.08594 169.964 6.08432C170.022 6.20235 170.2 6.42113 169.766 6.40951Z" fill="url(#paint22_linear_40_85)"/>
<path d="M171.266 6.29237L171.199 6.27057C171.241 6.23384 171.274 6.22623 171.266 6.29237Z" fill="url(#paint23_linear_40_85)"/>
<path d="M165.028 6.23592L165.086 6.16411L165.101 6.23174L165.028 6.23592Z" fill="url(#paint24_linear_40_85)"/>
<path d="M170.031 6.0062C170.253 5.93881 170.484 5.98609 170.692 6.14196C170.464 6.10383 170.223 6.08122 169.965 6.07961C169.938 6.02405 169.933 5.98787 170.031 6.0062Z" fill="url(#paint25_linear_40_85)"/>
<path d="M167.521 6.60788C167.693 6.51977 167.868 6.44673 168.045 6.38898C167.889 6.51465 167.576 6.70796 167.521 6.60788Z" fill="url(#paint26_linear_40_85)"/>
<path d="M171.1 6.38013L171.145 6.3984C171.045 6.48312 171.058 6.44085 171.1 6.38013Z" fill="url(#paint27_linear_40_85)"/>
<path d="M171.099 6.37911C170.959 6.32249 170.823 6.24325 170.692 6.14282C170.863 6.16732 171.032 6.2101 171.199 6.27045C171.163 6.29884 171.129 6.33534 171.099 6.37911Z" fill="url(#paint28_linear_40_85)"/>
<path d="M163.866 3.73727C163.925 4.09833 164.73 4.42252 165.414 4.03083C166.098 4.29625 165.67 5.49264 165.086 6.16368C165.062 6.00605 165.06 5.86414 164.358 5.65204C164.6 5.44789 165.903 5.17597 165.309 4.85403C164.38 4.67579 164.552 4.98849 164.104 5.18413C164.48 4.72967 162.917 4.53857 163.109 3.8732L163.925 4.09912C163.939 3.99487 163.642 3.8321 163.866 3.73727Z" fill="url(#paint29_linear_40_85)"/>
<path d="M166.418 6.11633L166.706 6.15879C166.364 6.24663 166.031 6.41512 165.718 6.65955C165.237 6.4867 165.136 6.35339 165.101 6.23296L166.517 6.16982L166.418 6.11633Z" fill="url(#paint30_linear_40_85)"/>
<path d="M167.998 6.14844C167.768 5.75229 167.074 5.59389 167.492 5.16373C168.336 5.18538 168.091 5.4898 168.595 5.65726C167.228 5.56748 168.989 5.87463 168.009 6.10332C168.254 6.15944 168.5 6.19278 168.746 6.2036C168.502 6.25176 168.265 6.31217 168.044 6.38695L168.074 6.36201L168.081 6.3619L168.081 6.35604C168.139 6.30704 168.158 6.27692 168.092 6.30604C168.083 6.30145 168.073 6.29863 168.063 6.29823C168.05 6.24142 168.029 6.19071 168.001 6.15033C167.608 6.23403 167.941 6.2513 168.063 6.29823C168.07 6.31637 168.076 6.33583 168.081 6.35604L168.075 6.36103L166.706 6.15525C167.136 6.10056 167.567 6.09837 167.998 6.14844Z" fill="url(#paint31_linear_40_85)"/>
<path d="M174.82 4.13112C174.779 4.16682 174.781 4.19459 174.778 4.22364C174.69 4.17514 174.657 4.14289 174.82 4.13112Z" fill="url(#paint32_linear_40_85)"/>
<path d="M174.262 4.37283C174.417 4.51881 174.595 4.57791 174.77 4.54196C175.048 4.42222 174.767 4.3541 174.779 4.22486C174.974 4.32756 175.463 4.50338 174.856 4.69872L174.758 4.6452C174.346 4.71636 173.952 4.95204 173.608 5.33282C173.777 4.92889 174.001 4.60011 174.262 4.37283Z" fill="url(#paint33_linear_40_85)"/>
<path d="M171.09 5.16073L169.951 4.97401L170.525 4.63021L170.498 4.8309C171.143 4.75092 171.007 5.00411 171.09 5.16073Z" fill="url(#paint34_linear_40_85)"/>
<path d="M164.902 6.43417L165.058 6.84856L164.396 6.26697L164.902 6.43417Z" fill="url(#paint35_linear_40_85)"/>
<path d="M163.421 6.39651L163.48 6.75932L163.087 6.54234L163.421 6.39651Z" fill="url(#paint36_linear_40_85)"/>
<path d="M79.9986 3.22749L79.6643 3.13306C79.7769 3.14935 79.8887 3.18099 79.9986 3.22749Z" fill="url(#paint37_linear_40_85)"/>
<path d="M82.4174 3.15211L82.4791 3.32931C82.367 3.2322 82.32 3.16076 82.4174 3.15211Z" fill="url(#paint38_linear_40_85)"/>
<path d="M127.15 6.79915C126.669 7.14537 126.135 7.67861 126.187 7.27067L126.329 6.86781C126.604 6.92778 126.882 6.90473 127.15 6.79915Z" fill="url(#paint39_linear_40_85)"/>
<path d="M102.269 4.86354L102.409 4.73906L102.744 5.1133L102.269 4.86354Z" fill="url(#paint40_linear_40_85)"/>
<path d="M101.896 3.22421L101.259 3.49191C101.466 3.36995 101.679 3.28045 101.896 3.22421Z" fill="url(#paint41_linear_40_85)"/>
<path d="M66.7875 3.09388L66.3908 2.70067C67.0007 2.6883 66.7361 2.89673 66.7875 3.09388Z" fill="url(#paint42_linear_40_85)"/>
<path d="M148.294 6.40469C147.952 6.54072 147.603 6.62486 147.251 6.65634C147.752 6.42178 148.158 6.07495 148.294 6.40469Z" fill="url(#paint43_linear_40_85)"/>
<path d="M81.029 7.42221C80.824 7.35369 80.7358 7.27597 80.7402 7.18588C80.951 7.2463 81.0704 7.3215 81.029 7.42221Z" fill="url(#paint44_linear_40_85)"/>
<path d="M146.038 6.66808C146.111 6.62683 146.184 6.60533 146.259 6.57106C146.587 6.64778 146.919 6.67571 147.25 6.65431C146.86 6.88171 146.435 6.88665 146.038 6.66808Z" fill="url(#paint45_linear_40_85)"/>
<path d="M18.9068 4.50904C18.8725 4.52663 18.8314 4.53618 18.8007 4.55871C18.7892 4.50589 18.8368 4.50123 18.9068 4.50904Z" fill="url(#paint46_linear_40_85)"/>
<path d="M5.03247 8.82523C5.17052 8.84588 5.39472 8.8419 5.60544 8.84332C5.41507 8.87499 5.22283 8.86903 5.03247 8.82523Z" fill="url(#paint47_linear_40_85)"/>
<path d="M157.482 6.62347C157.797 6.64612 157.533 6.66663 157.482 6.62347Z" fill="url(#paint48_linear_40_85)"/>
<path d="M158.983 5.03727C158.916 4.99241 158.862 4.93947 158.855 4.84558C158.868 4.89008 158.886 4.92991 158.908 4.96286C158.93 4.99581 158.955 5.02105 158.983 5.03727Z" fill="url(#paint49_linear_40_85)"/>
<path d="M142.88 4.23472L142.853 4.23518C142.944 4.15662 142.928 4.17089 142.88 4.23472Z" fill="url(#paint50_linear_40_85)"/>
<path d="M157.951 6.43862C157.82 6.49276 157.686 6.53287 157.552 6.55919C157.683 6.50503 157.817 6.46492 157.951 6.43862Z" fill="url(#paint51_linear_40_85)"/>
<path d="M157.891 6.6257L158.163 6.58494C158.203 6.65026 158.169 6.69299 157.891 6.6257Z" fill="url(#paint52_linear_40_85)"/>
<path d="M157.045 6.60479C157.214 6.60781 157.383 6.59246 157.551 6.55906C157.492 6.58607 157.465 6.60853 157.481 6.62325L157.045 6.60479Z" fill="url(#paint53_linear_40_85)"/>
<path d="M44.5841 4.98765C44.5636 5.002 44.5401 5.00949 44.5174 5.02688C44.2009 4.86824 44.339 4.89181 44.5841 4.98765Z" fill="url(#paint54_linear_40_85)"/>
<path d="M118.93 2.8064C118.942 2.8117 118.955 2.81819 118.966 2.8258L118.92 2.84075L118.93 2.8064Z" fill="url(#paint55_linear_40_85)"/>
<path d="M117.798 2.53058C117.962 2.71608 118.147 2.84011 118.34 2.89349C118.534 2.94687 118.731 2.92843 118.918 2.83971L118.566 3.98992L117.798 2.53058Z" fill="url(#paint56_linear_40_85)"/>
<path d="M74.209 3.23767L74.9928 2.86438C74.0281 2.29761 73.3414 2.51404 74.074 1.99644C74.2091 3.2375 77.1476 2.0582 77.2802 3.29731L77.7963 3.02478C77.6475 3.04032 77.6219 2.96788 77.4744 2.98239C78.4772 2.36517 78.2439 3.86948 79.5457 3.6593C79.9986 3.55157 80.3125 3.36789 79.9996 3.22617L81.019 3.50922C81.3153 3.47917 81.2373 3.26513 80.944 3.29412L82.4916 3.36208L82.4797 3.32516C82.7968 3.56259 83.1227 3.76436 83.4551 3.92887C83.8449 3.74319 83.2559 3.80109 83.3535 3.64438L84.215 3.92963C84.5578 3.60071 83.8428 3.30277 83.252 3.36283C84.0285 2.10527 83.9694 3.65982 85.678 2.90056L84.867 2.75952C85.3755 2.04467 86.0112 2.28704 86.9163 1.82452C86.7036 2.0572 85.1075 2.96754 86.042 3.25874C86.4084 3.12381 86.7911 3.15447 87.1518 3.34781C87.149 2.90573 87.6399 3.00541 88.2527 3.017L88.2006 2.43275C88.8657 2.58849 88.8192 2.88842 89.2129 3.1428C89.4229 3.17126 89.6324 3.10037 89.8176 2.93813C90.0028 2.7759 90.1564 2.52889 90.2611 2.22482C91.4404 2.10475 89.4581 2.96864 90.8587 3.04987C91.8106 2.87804 92.776 2.98202 93.7132 3.3574C94.3976 3.14571 93.5885 3.00154 93.8301 2.82938L94.4486 3.28384C94.5974 3.26931 94.5463 3.12809 94.5208 3.0555C95.0377 3.22576 94.5734 3.6385 95.3843 3.78176C95.6131 4.42105 97.0257 2.80678 98.0381 3.51978C98.2816 3.3486 97.9134 3.16482 97.9843 2.93655C98.7728 3.12309 99.5498 3.44154 100.304 3.88666L101.257 3.48412C100.559 3.9371 101.469 4.44101 102.265 4.8536C102.019 5.06886 101.809 5.26132 101.667 5.34975L102.931 5.63939C103.081 5.5368 102.951 5.33895 102.741 5.10145C102.828 5.14798 102.91 5.19874 102.974 5.23766C103.42 5.01301 103.181 4.67963 102.853 4.35812L102.406 4.72813C102.088 4.37943 101.791 3.99006 101.849 3.64596C101.983 3.7311 102.123 3.78221 102.265 3.79715C102.182 3.69854 102.129 3.6162 102.165 3.55757C102.201 3.49893 102.34 3.62192 102.549 3.76742L102.823 3.11021L102.897 3.36929L104.537 2.92918C105.727 3.56215 106.769 4.50997 108.644 4.74517C108.171 4.27507 108.53 3.96573 108.495 3.39916C107.995 4.00784 107.043 3.16987 106.075 3.31136C106.58 3.23876 106.464 2.97142 106.334 2.87861L108.072 3.39122C108.025 2.92888 108.433 3.03693 108.881 2.83726C108.556 3.76005 110.181 3.42548 110.889 3.69352C110.927 3.38478 110.753 3.07277 109.896 3.16337C110.834 2.45723 111.139 4.21832 112.058 3.61553C111.848 3.61009 111.736 3.66128 111.651 3.50669C112.145 3.77137 113.338 3.53265 113.051 3.26945L112.842 3.26714C114.232 3.13448 117.077 3.18715 117.298 3.96162C117.24 3.57526 117.144 3.20674 117.013 2.87191L119.54 5.44496C119.31 4.78167 120.123 3.17563 118.961 2.81927C119.434 2.65165 119.924 2.65268 120.4 2.82264C120.177 2.92647 119.854 3.79907 120.163 3.85382C120.675 3.40033 121.217 3.04606 121.779 2.79725C121.442 2.94601 121.836 3.98731 122.371 3.94622C122.284 3.79064 122.398 2.90943 122.2 2.80376L123.55 3.81138C123.215 3.63203 123.476 2.94031 123.768 2.64426C123.633 2.84661 124.919 2.60862 125.277 2.70457L124.716 2.95148C126.218 2.7739 126.224 4.37517 127.717 4.30077C127.63 4.20163 127.565 4.0579 127.532 3.89169C127.498 3.72549 127.497 3.54583 127.53 3.38131C127.563 3.21679 127.628 3.07637 127.714 2.98159C127.8 2.88681 127.903 2.84327 128.006 2.85745C128.363 3.37954 129.588 5.36914 130.914 5.75271L131.163 5.4486L132.181 5.77611C131.098 4.58259 129.954 3.55918 128.763 2.71857C129.322 2.472 128.914 2.36173 129.758 2.3754C130.05 2.08835 129.291 1.95538 129.043 1.9426L131.003 1.72905C130.925 2.34354 132.513 2.3224 132.446 2.8357L130.304 2.23229C130.227 2.84676 131.565 3.95695 132.953 3.82932C133.305 3.57926 132.672 2.73398 132.697 2.5335C133.167 2.78463 133.662 2.86402 134.149 2.7667L133.553 2.44616C134.321 2.20405 134.83 3.24451 135.753 2.64565C136.073 2.6002 136.699 1.83907 136.761 2.20213C136.247 2.91106 136.18 5.08423 136.538 5.60729C137.231 5.34015 137.911 4.99042 138.574 4.56116C139.094 4.00415 137.759 3.25947 138.202 2.7818C138.224 2.94848 138.52 3.1529 138.642 3.21683C138.978 3.06909 138.495 2.69981 139.228 2.76436C139.358 3.38634 140.718 2.69231 139.583 3.28778C140.303 3.4556 140.343 3.14872 141.183 3.16045C140.921 3.56502 141.96 4.52281 142.681 4.69061C142.636 4.53233 142.793 4.32361 142.871 4.22826C144.339 4.15129 145.124 3.86169 146.494 3.84041C146.619 3.68825 147.277 3.49691 146.991 3.23168C147.244 3.43342 147.519 3.54553 147.797 3.56037C148.607 3.01045 146.854 3.486 147.467 2.83139C147.526 3.19349 148.568 3.31917 149.173 3.53795C148.996 4.10113 147.784 3.6612 147.178 3.44244C147.187 4.21451 148.249 5.01087 149.686 5.35154C150.827 5.5322 150.171 4.84337 150.371 4.95502C152.505 4.7967 152.212 6.28113 153.979 5.70593C154.676 5.20493 153.996 4.72634 154.147 4.36967C153.217 4.19443 152.728 4.69863 152.1 4.6863L152.867 4.44418C152.458 4.24651 152.031 4.20203 151.614 4.31359C152.2 3.8675 155.224 4.18522 156.867 3.76516C157.163 3.92818 157.671 4.09368 157.435 4.29375L156.912 4.22938C156.438 4.62955 157.903 4.76854 157.245 4.95978C158.046 5.39299 158.889 5.55333 159.722 5.431L159.899 4.86776C159.88 5.03213 159.26 5.208 158.981 5.03869C159.395 5.28272 160.481 4.26665 160.939 4.99807L160.254 5.39216C161.044 5.86344 161.876 6.09329 162.709 6.07134C162.319 6.62712 162.506 6.00891 161.895 6.66249C162.422 5.8533 159.661 6.71625 160.516 5.86148C159.89 6.62033 159.418 6.19054 158.595 6.83972C158.618 6.65428 158.886 6.48256 158.152 6.58105C158.102 6.51545 158.048 6.46087 157.989 6.41874L157.94 6.43373L157.98 6.41205C157.948 6.38459 157.945 6.37834 157.996 6.40349C158.131 6.35733 158.257 6.26028 158.365 6.11929C157.995 5.69746 156.829 5.72031 156.432 5.505C155.998 5.5974 156.617 5.71607 156.382 5.91612L155.788 5.59116C155.736 6.00316 154.643 6.2877 155.671 6.51529L154.749 6.54513C154.181 6.79926 153.587 6.85665 153.001 6.71454C152.567 6.80893 151.895 6.27251 152.279 6.58907L150.829 6.35144L150.817 6.45177C149.394 6.51898 147.868 5.80185 146.248 6.56461C145.657 6.41125 145.059 6.38006 144.466 6.47183L144.315 6.8285C143.696 6.71099 142.467 7.20801 142.197 6.8435C141.546 7.80784 139.206 7.09418 138.124 7.27662L138.075 6.81344C137.276 6.82261 136.476 6.73564 135.681 6.55376L135.734 6.14309C134.928 5.81668 133.683 6.46282 132.418 6.43731C132.507 6.59385 132.827 6.54734 133.053 6.44948C131.557 7.39517 129.855 5.82481 128.496 6.5201C128.223 6.39687 127.937 6.40174 127.668 6.53418C127.697 6.53357 127.725 6.54016 127.753 6.55374C127.718 6.55434 127.666 6.56021 127.612 6.55613C127.463 6.62969 127.309 6.7141 127.141 6.78198C127.268 6.68497 127.4 6.60989 127.536 6.55742C127.183 6.54601 126.83 6.49716 126.479 6.41128L126.32 6.85407L126.229 6.84144C125.848 7.01097 125.916 6.63912 126.116 6.30463C125.938 6.24731 125.763 6.16074 125.594 6.04634C125.294 6.76264 124.563 5.82288 124.15 6.58812C123.88 6.2216 122.178 6.34046 121.956 5.56701C121.945 5.66724 121.83 5.71799 122.042 5.72039C121.626 5.86922 121.194 5.86191 120.777 5.69891L120.601 6.26211L119.635 5.52538C119.063 5.87722 118.826 6.0795 119.408 6.50072C118.009 5.86331 118.276 6.2705 117.087 5.63953L117.153 6.00082C116.731 5.99499 116.048 5.51926 115.799 5.82359C114.867 6.52763 111.131 6.00322 108.719 6.6834C109.171 5.60942 107.6 7.18041 107.492 6.35701C107.355 6.6114 107.021 6.76492 107.417 6.97125C106.176 6.74727 105.566 7.40281 104.701 6.72632C104.564 6.98173 104.972 7.09184 104.848 7.24398C104.748 7.19067 104.452 7.03177 104.326 7.18596C104.2 7.34015 104.51 7.3927 104.709 7.49936C103.445 7.48083 103.304 6.70711 103.199 5.97869C102.976 6.16311 102.728 6.24618 102.478 6.21903C102.228 6.19189 101.986 6.05574 101.774 5.82414C101.556 6.06692 101.189 6.32398 101.975 6.39365C101.534 6.43715 99.2846 6.79448 99.229 6.21126C98.9895 6.31637 98.7366 6.31311 98.4957 6.20175C97.5052 6.25559 97.4195 6.31018 96.4454 6.27372L96.7137 6.16903C96.3166 5.47558 95.9022 6.02894 95.1169 5.96027L95.1406 6.03167C93.3518 6.57822 94.3597 5.80409 92.5947 6.42026L92.6834 5.97966C92.5006 5.0395 91.1221 6.56907 90.0857 6.22359L90.4523 5.96631C89.8842 5.65387 88.9046 7.28122 88.3398 7.40985C88.2178 7.49495 88.5367 7.53746 88.7092 7.59454C87.2411 8.18267 88.5072 7.02362 87.4036 6.91634C87.2059 7.22979 87.6799 7.69902 86.9397 7.77262C86.5749 8.03089 84.7703 6.80931 83.7705 7.42648C83.9889 7.18169 84.2056 6.93874 83.691 6.76943C82.9051 6.70177 81.5873 7.71755 80.8654 6.9806C80.7669 7.0483 80.7305 7.11092 80.7274 7.17099C80.1247 6.98918 78.7731 6.89142 78.4042 6.48957C77.8787 8.01695 74.6639 5.83173 74.7037 7.22846L72.8582 7.19487L72.9092 7.33614C72.2228 7.50013 71.5192 7.3139 70.8884 6.80197C70.6177 6.9066 70.8193 7.0305 70.843 7.10312C69.7323 7.47944 68.5763 7.34144 67.4972 6.70381L67.3559 7.16045C66.9598 6.9041 64.8793 7.92646 63.1803 7.4312C63.1978 7.48191 63.2349 7.5705 63.3694 7.62823C61.4615 7.13852 58.8437 8.98731 58.116 7.3522L56.8541 6.97364C58.4742 6.80805 56.5992 6.26309 57.2609 5.97376C56.6214 5.8906 55.6209 6.5087 56.4062 6.57537L56.5277 6.49027C56.8325 7.34434 54.5153 6.84048 54.5721 7.42368C51.3796 7.45395 48.2765 7.99977 45.2865 8.10561L45.6187 7.42888L44.5762 7.49153C44.3053 7.65418 44.2184 8.02391 44.9626 7.97925C44.5786 8.36689 43.7081 7.68845 43.6843 7.54382C42.2321 7.84758 44.2684 8.31091 43.8213 8.34152L43.214 8.30593L43.3492 8.22451C42.9037 7.83668 42.405 7.66463 41.9095 7.72784C41.3457 7.87346 41.6269 8.1467 41.4048 8.17649C41.4056 8.22449 41.3324 8.24871 41.0633 8.20427L39.7505 8.29057L40.2661 7.75089C39.6784 7.50481 39.0312 7.80698 39.6263 7.19569C38.7519 8.13782 34.73 7.63698 34.1889 7.93626C33.3249 7.62008 32.4396 7.5286 31.564 7.66487C31.8096 7.54967 31.9467 6.95221 31.0882 7.04583C31.4258 8.26344 29.5223 7.61336 28.8442 8.51115C29.4544 7.9116 26.3952 8.42292 27.3542 7.57038C26.6384 7.68257 27.32 8.03009 26.7808 8.33034C25.0631 7.89541 23.0204 8.72549 20.9052 8.61241C20.8692 8.45197 21.218 8.19798 20.7606 7.96868L19.6605 8.79817C19.2438 8.72823 19.259 7.87896 18.5077 8.45389C18.6122 8.31607 18.7696 8.10823 18.4886 8.06299C14.3654 8.94132 10.0213 7.60666 5.84579 9.17808C6.40896 8.85341 6.02919 8.82986 5.59463 8.82824C5.87584 8.74844 5.58073 8.42862 5.63286 8.21267L3.88426 8.85634C3.553 8.2618 1.99773 8.85652 1.80336 8.28265L2.36243 8.37328C1.60851 7.7079 3.37087 6.83379 3.24556 5.95767C4.08951 6.71554 5.41149 4.76036 6.79341 5.84119C7.09063 5.65608 6.53163 5.56571 6.68836 5.35699C7.16878 5.75864 7.71736 5.84855 8.22786 5.60971L8.13908 5.51939C9.98819 5.46035 11.8325 5.24384 13.6653 4.87109L13.4946 5.3082C13.7945 5.27513 14.089 5.16649 14.3682 4.98613C14.9811 5.6289 12.8979 5.05623 13.4591 5.7689C14.1366 4.87212 17.1509 5.67204 17.6021 4.66008C18.4072 4.63539 17.3733 5.16432 18.1808 5.14159L18.3886 4.86601L18.5992 5.21019C19.1258 5.14022 19.3864 4.79683 19.4009 4.56552C19.2327 4.56395 19.0645 4.53998 18.8981 4.49396C19.5774 4.15832 20.8315 4.56131 21.0647 4.44932L20.2961 4.63431C22.4995 4.83792 25.1774 4.42249 27.3117 4.92336L27.1543 5.13117C28.7837 5.47258 28.4488 4.87772 30.2331 5.01143L30.1677 4.96468C30.5991 5.17498 31.0471 5.2606 31.4927 5.21811C31.0383 4.98977 32.3298 4.73279 31.7349 4.48283C33.5012 4.85292 32.6114 4.78091 33.7873 5.51514L34.0487 5.16978C34.455 5.55537 34.9163 5.73768 35.3778 5.69519C34.643 5.4216 35.9357 5.16566 35.1115 4.79956C36.9633 4.01486 37.8965 5.48551 38.7325 4.37999C39.6077 5.29938 37.128 4.9394 37.6115 5.12924C37.2149 5.44407 38.332 5.81729 38.916 5.70733C39.509 5.67224 39.9043 4.48298 41.407 4.46444C41.2581 4.47197 41.2463 4.40114 41.098 4.40766C41.6553 4.15712 42.2036 4.70623 42.8853 4.30353C43.2819 4.86095 43.7785 4.24939 43.9059 4.97143L42.5263 4.83468C43.3099 5.00742 44.0577 5.83681 45.3342 5.39699C45.0962 5.19289 44.8424 5.04864 44.5808 4.96875C44.9528 4.74737 45.3071 5.09444 45.6926 4.86682C45.5682 4.14373 44.0178 4.74705 43.1716 4.20928C43.5687 3.89344 44.762 4.69879 44.3273 3.92295C44.9496 4.90766 45.8027 3.76344 46.8303 4.50119L46.7553 4.06874C47.0128 4.2115 47.2801 4.29392 47.5496 4.3141L47.006 3.76313C47.8371 4.22313 48.5832 3.30634 49.3768 3.54992C47.7253 3.578 49.016 4.08091 48.323 4.41378C50.3705 4.94914 49.4727 3.25211 51.7578 3.40932C51.4476 3.35557 50.6033 3.69589 51.0897 3.88467C51.5243 3.81221 51.9497 3.64001 52.3544 3.37231C53.8673 3.42962 52.1305 3.82516 52.7789 4.07721C53.2832 3.53649 53.5249 4.27457 54.19 4.42931L54.1866 3.98832C55.9026 3.66707 54.6604 4.89745 56.2045 4.5201L55.5378 3.92335L56.3487 4.06439L56.1723 3.56725C56.8348 3.85243 57.5242 3.88313 58.1891 3.65702C57.9957 3.9734 58.3172 4.45513 59.08 4.45217C59.5953 4.17833 58.781 4.04029 59.8632 4.07791C59.731 3.87216 59.5637 3.7423 59.3862 3.70749C59.2087 3.67268 59.0303 3.73481 58.8774 3.88465C58.8269 3.74246 58.6312 3.61276 58.579 3.47261C59.1703 3.28813 59.7762 3.25235 60.377 3.36682C60.234 3.37447 60.0925 3.41214 59.9557 3.479L61.5343 4.05243C61.7778 3.88224 61.5797 3.75135 61.384 3.62664C61.7023 3.66724 61.9253 3.86569 62.3924 3.89376C62.2676 3.53678 62.2874 3.16627 61.623 3.01352L63.1233 3.37826C63.2203 3.21956 63.8815 2.93326 63.6852 2.80556C64.5094 2.57548 65.7294 3.45691 66.8212 3.15226C66.9484 3.26188 67.088 3.32308 67.2298 3.33141C68.2591 3.22688 69.1648 2.76646 70.3961 3.23166L71.0777 2.5739C72.0373 2.69862 70.1539 3.40366 71.7519 3.61156C72.8829 3.7924 72.1633 3.05346 72.5555 2.86674C73.3731 3.46629 74.279 3.60783 75.1381 3.27072C74.8288 3.22427 74.5184 3.21334 74.209 3.23767ZM86.0226 3.27079C85.792 3.18268 85.3308 2.9057 85.1685 3.17053C85.4376 3.6701 85.6347 3.42541 86.022 3.27178L86.0226 3.27079ZM103.992 3.97684C103.747 3.86299 103.488 3.90308 103.263 4.08935C103.509 4.12431 103.755 4.08649 103.991 3.97783L103.992 3.97684ZM154.045 6.2958C154.036 6.28989 154.028 6.28302 154.02 6.27522C153.512 6.45291 153.691 6.38381 154.044 6.29679L154.045 6.2958ZM155.101 6.09273C155.209 6.15292 155.202 6.21512 155.158 6.27589C154.971 6.15907 154.769 6.13119 154.574 6.19498C154.65 6.07866 154.783 5.99809 155.101 6.09371L155.101 6.09273ZM41.2972 8.02739L41.5006 7.90916C41.0327 7.79608 41.1646 7.90752 41.2967 8.03131L41.2972 8.02739Z" fill="#52525B"/>
<path d="M101.947 3.4145C101.898 3.47079 101.864 3.55675 101.852 3.6549C101.761 3.58344 101.757 3.49873 101.947 3.4145Z" fill="url(#paint57_linear_40_85)"/>
<path d="M66.8623 3.1666L66.8259 3.17308C66.8093 3.15284 66.7962 3.12529 66.7882 3.09363L66.8623 3.1666Z" fill="url(#paint58_linear_40_85)"/>
<path d="M138.626 2.55076C138.478 2.58311 138.337 2.66262 138.209 2.78493C138.196 2.67613 138.293 2.58442 138.626 2.55076Z" fill="url(#paint59_linear_40_85)"/>
<path d="M160.728 6.79434L160.047 6.68479C160.255 6.70138 160.462 6.65067 160.657 6.53477C160.643 6.63901 160.516 6.78994 160.728 6.79434Z" fill="url(#paint60_linear_40_85)"/>
<path d="M166.583 4.01085C166.683 4.06416 166.793 4.01527 166.891 4.0686L166.867 4.27413C166.444 4.26331 166.147 4.10127 166.583 4.01085Z" fill="url(#paint61_linear_40_85)"/>
<path d="M161.335 5.32076C161.384 4.94888 161.811 5.07067 162.288 5.13657C162.26 5.13363 162.232 5.13411 162.204 5.13801C162.351 5.65458 161.841 5.48718 161.335 5.32076Z" fill="url(#paint62_linear_40_85)"/>
<path d="M162.398 5.14728C162.545 5.16663 162.692 5.16867 162.838 5.153C162.897 5.36103 162.66 5.19683 162.398 5.14728Z" fill="url(#paint63_linear_40_85)"/>
<path d="M156.449 6.33102C156.673 6.2332 156.597 6.80474 156.723 6.65258C156.981 7.12226 155.212 6.09002 156.449 6.33102Z" fill="url(#paint64_linear_40_85)"/>
<path d="M161.703 4.09581L161.539 4.55472L161.267 4.18721L161.703 4.09581Z" fill="url(#paint65_linear_40_85)"/>
<path d="M157.953 4.46476L158.711 4.33076C158.701 4.40795 158.798 4.4525 158.917 4.48549C158.449 4.50445 157.937 4.60005 157.953 4.46476Z" fill="url(#paint66_linear_40_85)"/>
<path d="M158.917 4.48551C159.122 4.45995 159.328 4.48346 159.53 4.55518C159.325 4.55428 159.12 4.53096 158.917 4.48551Z" fill="url(#paint67_linear_40_85)"/>
<path d="M160.662 3.96683L160.439 4.06342L159.905 4.10277L160.662 3.96683Z" fill="url(#paint68_linear_40_85)"/>
<path d="M149.785 4.63994L148.952 4.51687C148.865 4.36133 149.09 4.26247 149.399 4.32223C149.602 4.4288 149.91 4.48679 149.785 4.63994Z" fill="url(#paint69_linear_40_85)"/>
<path d="M152.274 3.35701C152.136 3.41573 152.012 3.53815 151.914 3.71035L151.88 3.14249L152.274 3.35701Z" fill="url(#paint70_linear_40_85)"/>
<path d="M149.855 3.2531C149.769 3.09652 148.644 2.81564 149.696 2.83777C149.782 2.99332 150.614 3.11516 149.855 3.2531Z" fill="url(#paint71_linear_40_85)"/>
<path d="M137.368 4.12756L137.578 4.13083L137.562 5.06336L137.368 4.12756Z" fill="url(#paint72_linear_40_85)"/>
<path d="M126.318 2.05907C127.296 1.8214 126.56 2.62983 127.443 2.33978C127.677 2.55583 126.722 2.57807 126.961 2.76503C126.364 2.54114 126.055 2.67662 126.318 2.05907Z" fill="url(#paint73_linear_40_85)"/>
<path d="M126.962 2.76419C127.065 2.801 127.166 2.84677 127.266 2.90114C127.162 2.87407 127.061 2.82809 126.962 2.76419Z" fill="url(#paint74_linear_40_85)"/>
<path d="M2.72725 9.37513L2.09861 9.58604L2.50091 9.26422L2.72725 9.37513Z" fill="url(#paint75_linear_40_85)"/>
<path d="M1.5019 8.71205L1.36363 9.30726L0.974132 8.77914C1.15127 8.83803 1.33375 8.81477 1.5019 8.71205Z" fill="url(#paint76_linear_40_85)"/>
<path d="M87.7559 2.04141L87.8063 2.18218C87.7111 2.33882 87.5635 2.35371 87.2679 2.38374L87.7559 2.04141Z" fill="url(#paint77_linear_40_85)"/>
<path d="M79.1929 2.66383L79.3397 2.64815L79.0754 3.19081L79.1929 2.66383Z" fill="url(#paint78_linear_40_85)"/>
<path d="M71.988 2.13402C72.2807 2.10504 72.6286 2.21699 72.9225 2.18699C72.2813 2.10488 71.9216 2.80525 71.988 2.13402Z" fill="url(#paint79_linear_40_85)"/>
<defs>
<linearGradient id="paint0_linear_40_85" x1="3.25373" y1="8.92259" x2="186.186" y2="5.92084" gradientUnits="userSpaceOnUse">
<stop/>
<stop offset="1" stop-color="#313337"/>
</linearGradient>
<linearGradient id="paint1_linear_40_85" x1="-271.058" y1="12.4718" x2="173.634" y2="5.62201" gradientUnits="userSpaceOnUse">
<stop/>
<stop offset="1" stop-color="#313337"/>
</linearGradient>
<linearGradient id="paint2_linear_40_85" x1="-1707.51" y1="36.654" x2="130.793" y2="14.0233" gradientUnits="userSpaceOnUse">
<stop/>
<stop offset="1" stop-color="#313337"/>
</linearGradient>
<linearGradient id="paint3_linear_40_85" x1="-226.515" y1="13.2831" x2="168.919" y2="7.72509" gradientUnits="userSpaceOnUse">
<stop/>
<stop offset="1" stop-color="#313337"/>
</linearGradient>
<linearGradient id="paint4_linear_40_85" x1="31.5839" y1="9.16331" x2="176.397" y2="7.0007" gradientUnits="userSpaceOnUse">
<stop/>
<stop offset="1" stop-color="#313337"/>
</linearGradient>
<linearGradient id="paint5_linear_40_85" x1="-422.075" y1="16.2962" x2="161.718" y2="7.29481" gradientUnits="userSpaceOnUse">
<stop/>
<stop offset="1" stop-color="#313337"/>
</linearGradient>
<linearGradient id="paint6_linear_40_85" x1="-30.1636" y1="9.51779" x2="172.161" y2="6.48364" gradientUnits="userSpaceOnUse">
<stop/>
<stop offset="1" stop-color="#313337"/>
</linearGradient>
<linearGradient id="paint7_linear_40_85" x1="-264.731" y1="13.2412" x2="166.049" y2="6.64499" gradientUnits="userSpaceOnUse">
<stop/>
<stop offset="1" stop-color="#313337"/>
</linearGradient>
<linearGradient id="paint8_linear_40_85" x1="-459.787" y1="16.2615" x2="161.723" y2="6.85328" gradientUnits="userSpaceOnUse">
<stop/>
<stop offset="1" stop-color="#313337"/>
</linearGradient>
<linearGradient id="paint9_linear_40_85" x1="-382.115" y1="13.7975" x2="166.745" y2="6.07118" gradientUnits="userSpaceOnUse">
<stop/>
<stop offset="1" stop-color="#313337"/>
</linearGradient>
<linearGradient id="paint10_linear_40_85" x1="-292.719" y1="13.8261" x2="161.876" y2="6.6331" gradientUnits="userSpaceOnUse">
<stop/>
<stop offset="1" stop-color="#313337"/>
</linearGradient>
<linearGradient id="paint11_linear_40_85" x1="-275.611" y1="13.5733" x2="161.952" y2="7.21886" gradientUnits="userSpaceOnUse">
<stop/>
<stop offset="1" stop-color="#313337"/>
</linearGradient>
<linearGradient id="paint12_linear_40_85" x1="-696.378" y1="19.7401" x2="153.633" y2="7.24311" gradientUnits="userSpaceOnUse">
<stop/>
<stop offset="1" stop-color="#313337"/>
</linearGradient>
<linearGradient id="paint13_linear_40_85" x1="-277.022" y1="13.977" x2="159.556" y2="7.10057" gradientUnits="userSpaceOnUse">
<stop/>
<stop offset="1" stop-color="#313337"/>
</linearGradient>
<linearGradient id="paint14_linear_40_85" x1="-741.144" y1="21.8424" x2="144.269" y2="8.59127" gradientUnits="userSpaceOnUse">
<stop/>
<stop offset="1" stop-color="#313337"/>
</linearGradient>
<linearGradient id="paint15_linear_40_85" x1="-228.655" y1="13.2403" x2="157.699" y2="7.36034" gradientUnits="userSpaceOnUse">
<stop/>
<stop offset="1" stop-color="#313337"/>
</linearGradient>
<linearGradient id="paint16_linear_40_85" x1="-179.341" y1="11.855" x2="162.96" y2="6.45867" gradientUnits="userSpaceOnUse">
<stop/>
<stop offset="1" stop-color="#313337"/>
</linearGradient>
<linearGradient id="paint17_linear_40_85" x1="-212.997" y1="12.772" x2="161.727" y2="13.6464" gradientUnits="userSpaceOnUse">
<stop/>
<stop offset="1" stop-color="#313337"/>
</linearGradient>
<linearGradient id="paint18_linear_40_85" x1="129.355" y1="6.92053" x2="171.915" y2="6.27318" gradientUnits="userSpaceOnUse">
<stop/>
<stop offset="1" stop-color="#313337"/>
</linearGradient>
<linearGradient id="paint19_linear_40_85" x1="-325.391" y1="12.7283" x2="161.527" y2="4.87362" gradientUnits="userSpaceOnUse">
<stop/>
<stop offset="1" stop-color="#313337"/>
</linearGradient>
<linearGradient id="paint20_linear_40_85" x1="-334.124" y1="13.945" x2="159.618" y2="6.49573" gradientUnits="userSpaceOnUse">
<stop/>
<stop offset="1" stop-color="#313337"/>
</linearGradient>
<linearGradient id="paint21_linear_40_85" x1="-57.404" y1="9.39448" x2="166.848" y2="6.03075" gradientUnits="userSpaceOnUse">
<stop/>
<stop offset="1" stop-color="#313337"/>
</linearGradient>
<linearGradient id="paint22_linear_40_85" x1="-703.216" y1="20.6156" x2="144.928" y2="9.33511" gradientUnits="userSpaceOnUse">
<stop/>
<stop offset="1" stop-color="#313337"/>
</linearGradient>
<linearGradient id="paint23_linear_40_85" x1="125.274" y1="6.97605" x2="169.942" y2="6.27305" gradientUnits="userSpaceOnUse">
<stop/>
<stop offset="1" stop-color="#313337"/>
</linearGradient>
<linearGradient id="paint24_linear_40_85" x1="115.838" y1="6.93301" x2="163.681" y2="6.1653" gradientUnits="userSpaceOnUse">
<stop/>
<stop offset="1" stop-color="#313337"/>
</linearGradient>
<linearGradient id="paint25_linear_40_85" x1="-326.72" y1="14.2569" x2="156.383" y2="7.94168" gradientUnits="userSpaceOnUse">
<stop/>
<stop offset="1" stop-color="#313337"/>
</linearGradient>
<linearGradient id="paint26_linear_40_85" x1="-185.619" y1="12.1709" x2="157.865" y2="7.02906" gradientUnits="userSpaceOnUse">
<stop/>
<stop offset="1" stop-color="#313337"/>
</linearGradient>
<linearGradient id="paint27_linear_40_85" x1="119.29" y1="7.1977" x2="169.651" y2="6.39622" gradientUnits="userSpaceOnUse">
<stop/>
<stop offset="1" stop-color="#313337"/>
</linearGradient>
<linearGradient id="paint28_linear_40_85" x1="-167.317" y1="11.6543" x2="161.452" y2="6.69247" gradientUnits="userSpaceOnUse">
<stop/>
<stop offset="1" stop-color="#313337"/>
</linearGradient>
<linearGradient id="paint29_linear_40_85" x1="-1618.09" y1="31.6691" x2="114.355" y2="3.94849" gradientUnits="userSpaceOnUse">
<stop/>
<stop offset="1" stop-color="#313337"/>
</linearGradient>
<linearGradient id="paint30_linear_40_85" x1="-909.727" y1="23.8981" x2="135.732" y2="9.02834" gradientUnits="userSpaceOnUse">
<stop/>
<stop offset="1" stop-color="#313337"/>
</linearGradient>
<linearGradient id="paint31_linear_40_85" x1="-1197.71" y1="27.1828" x2="129.379" y2="6.63872" gradientUnits="userSpaceOnUse">
<stop/>
<stop offset="1" stop-color="#313337"/>
</linearGradient>
<linearGradient id="paint32_linear_40_85" x1="97.1911" y1="5.36221" x2="172.584" y2="4.16791" gradientUnits="userSpaceOnUse">
<stop/>
<stop offset="1" stop-color="#313337"/>
</linearGradient>
<linearGradient id="paint33_linear_40_85" x1="-868.138" y1="20.9045" x2="145.097" y2="5.01117" gradientUnits="userSpaceOnUse">
<stop/>
<stop offset="1" stop-color="#313337"/>
</linearGradient>
<linearGradient id="paint34_linear_40_85" x1="-590.345" y1="17.0438" x2="149.161" y2="5.90113" gradientUnits="userSpaceOnUse">
<stop/>
<stop offset="1" stop-color="#313337"/>
</linearGradient>
<linearGradient id="paint35_linear_40_85" x1="-272.533" y1="13.1227" x2="152.441" y2="6.32802" gradientUnits="userSpaceOnUse">
<stop/>
<stop offset="1" stop-color="#313337"/>
</linearGradient>
<linearGradient id="paint36_linear_40_85" x1="-97.4921" y1="10.4809" x2="155.955" y2="6.42152" gradientUnits="userSpaceOnUse">
<stop/>
<stop offset="1" stop-color="#313337"/>
</linearGradient>
<linearGradient id="paint37_linear_40_85" x1="-142.972" y1="6.82127" x2="73.5819" y2="3.80092" gradientUnits="userSpaceOnUse">
<stop/>
<stop offset="1" stop-color="#313337"/>
</linearGradient>
<linearGradient id="paint38_linear_40_85" x1="7.33226" y1="4.25655" x2="80.3094" y2="3.0581" gradientUnits="userSpaceOnUse">
<stop/>
<stop offset="1" stop-color="#313337"/>
</linearGradient>
<linearGradient id="paint39_linear_40_85" x1="-526.98" y1="17.337" x2="108.313" y2="7.48099" gradientUnits="userSpaceOnUse">
<stop/>
<stop offset="1" stop-color="#313337"/>
</linearGradient>
<linearGradient id="paint40_linear_40_85" x1="-213.101" y1="9.7361" x2="93.6394" y2="4.87102" gradientUnits="userSpaceOnUse">
<stop/>
<stop offset="1" stop-color="#313337"/>
</linearGradient>
<linearGradient id="paint41_linear_40_85" x1="-327.765" y1="10.2806" x2="89.5293" y2="4.14327" gradientUnits="userSpaceOnUse">
<stop/>
<stop offset="1" stop-color="#313337"/>
</linearGradient>
<linearGradient id="paint42_linear_40_85" x1="-206.99" y1="6.96215" x2="58.9103" y2="2.69133" gradientUnits="userSpaceOnUse">
<stop/>
<stop offset="1" stop-color="#313337"/>
</linearGradient>
<linearGradient id="paint43_linear_40_85" x1="-553.84" y1="17.8428" x2="128.086" y2="8.01167" gradientUnits="userSpaceOnUse">
<stop/>
<stop offset="1" stop-color="#313337"/>
</linearGradient>
<linearGradient id="paint44_linear_40_85" x1="-115.941" y1="10.2967" x2="75.3594" y2="7.25864" gradientUnits="userSpaceOnUse">
<stop/>
<stop offset="1" stop-color="#313337"/>
</linearGradient>
<linearGradient id="paint45_linear_40_85" x1="-665.063" y1="20.1088" x2="123.888" y2="10.024" gradientUnits="userSpaceOnUse">
<stop/>
<stop offset="1" stop-color="#313337"/>
</linearGradient>
<linearGradient id="paint46_linear_40_85" x1="-53.7756" y1="5.69104" x2="16.8144" y2="4.6272" gradientUnits="userSpaceOnUse">
<stop/>
<stop offset="1" stop-color="#313337"/>
</linearGradient>
<linearGradient id="paint47_linear_40_85" x1="-378.212" y1="15.298" x2="-5.42912" y2="13.4243" gradientUnits="userSpaceOnUse">
<stop/>
<stop offset="1" stop-color="#313337"/>
</linearGradient>
<linearGradient id="paint48_linear_40_85" x1="56.0702" y1="8.32111" x2="154.714" y2="7.14661" gradientUnits="userSpaceOnUse">
<stop/>
<stop offset="1" stop-color="#313337"/>
</linearGradient>
<linearGradient id="paint49_linear_40_85" x1="75.048" y1="6.08321" x2="156.56" y2="4.74587" gradientUnits="userSpaceOnUse">
<stop/>
<stop offset="1" stop-color="#313337"/>
</linearGradient>
<linearGradient id="paint50_linear_40_85" x1="98.0836" y1="4.89282" x2="141.627" y2="4.20342" gradientUnits="userSpaceOnUse">
<stop/>
<stop offset="1" stop-color="#313337"/>
</linearGradient>
<linearGradient id="paint51_linear_40_85" x1="-110.975" y1="10.9005" x2="150.215" y2="7.30644" gradientUnits="userSpaceOnUse">
<stop/>
<stop offset="1" stop-color="#313337"/>
</linearGradient>
<linearGradient id="paint52_linear_40_85" x1="-33.4134" y1="9.77055" x2="152.665" y2="7.26968" gradientUnits="userSpaceOnUse">
<stop/>
<stop offset="1" stop-color="#313337"/>
</linearGradient>
<linearGradient id="paint53_linear_40_85" x1="-182.562" y1="12.2802" x2="147.777" y2="9.10875" gradientUnits="userSpaceOnUse">
<stop/>
<stop offset="1" stop-color="#313337"/>
</linearGradient>
<linearGradient id="paint54_linear_40_85" x1="-122.622" y1="7.63616" x2="39.7693" y2="5.1906" gradientUnits="userSpaceOnUse">
<stop/>
<stop offset="1" stop-color="#313337"/>
</linearGradient>
<linearGradient id="paint55_linear_40_85" x1="87.761" y1="3.30329" x2="118.067" y2="2.826" gradientUnits="userSpaceOnUse">
<stop/>
<stop offset="1" stop-color="#313337"/>
</linearGradient>
<linearGradient id="paint56_linear_40_85" x1="-628.203" y1="13.7918" x2="97.3768" y2="1.96155" gradientUnits="userSpaceOnUse">
<stop/>
<stop offset="1" stop-color="#313337"/>
</linearGradient>
<linearGradient id="paint57_linear_40_85" x1="-3.69606" y1="4.97998" x2="98.9008" y2="3.29804" gradientUnits="userSpaceOnUse">
<stop/>
<stop offset="1" stop-color="#313337"/>
</linearGradient>
<linearGradient id="paint58_linear_40_85" x1="18.0385" y1="3.84509" x2="65.4541" y2="3.07864" gradientUnits="userSpaceOnUse">
<stop/>
<stop offset="1" stop-color="#313337"/>
</linearGradient>
<linearGradient id="paint59_linear_40_85" x1="-143.984" y1="7.13599" x2="130.488" y2="2.93815" gradientUnits="userSpaceOnUse">
<stop/>
<stop offset="1" stop-color="#313337"/>
</linearGradient>
<linearGradient id="paint60_linear_40_85" x1="-293.994" y1="14.0122" x2="147.636" y2="7.55996" gradientUnits="userSpaceOnUse">
<stop/>
<stop offset="1" stop-color="#313337"/>
</linearGradient>
<linearGradient id="paint61_linear_40_85" x1="-184.124" y1="9.71415" x2="156.784" y2="4.53048" gradientUnits="userSpaceOnUse">
<stop/>
<stop offset="1" stop-color="#313337"/>
</linearGradient>
<linearGradient id="paint62_linear_40_85" x1="-478.175" y1="15.5287" x2="143.85" y2="6.23148" gradientUnits="userSpaceOnUse">
<stop/>
<stop offset="1" stop-color="#313337"/>
</linearGradient>
<linearGradient id="paint63_linear_40_85" x1="-136.999" y1="10.1259" x2="154.221" y2="6.21405" gradientUnits="userSpaceOnUse">
<stop/>
<stop offset="1" stop-color="#313337"/>
</linearGradient>
<linearGradient id="paint64_linear_40_85" x1="-337.598" y1="14.2129" x2="142.505" y2="6.71244" gradientUnits="userSpaceOnUse">
<stop/>
<stop offset="1" stop-color="#313337"/>
</linearGradient>
<linearGradient id="paint65_linear_40_85" x1="-131.459" y1="8.63942" x2="153.255" y2="4.05009" gradientUnits="userSpaceOnUse">
<stop/>
<stop offset="1" stop-color="#313337"/>
</linearGradient>
<linearGradient id="paint66_linear_40_85" x1="-487.013" y1="15.1191" x2="140.341" y2="7.28964" gradientUnits="userSpaceOnUse">
<stop/>
<stop offset="1" stop-color="#313337"/>
</linearGradient>
<linearGradient id="paint67_linear_40_85" x1="-250.608" y1="11.3555" x2="147.74" y2="7.14131" gradientUnits="userSpaceOnUse">
<stop/>
<stop offset="1" stop-color="#313337"/>
</linearGradient>
<linearGradient id="paint68_linear_40_85" x1="-348.149" y1="12.4979" x2="146.036" y2="6.89712" gradientUnits="userSpaceOnUse">
<stop/>
<stop offset="1" stop-color="#313337"/>
</linearGradient>
<linearGradient id="paint69_linear_40_85" x1="-439.178" y1="13.9744" x2="132.858" y2="5.58845" gradientUnits="userSpaceOnUse">
<stop/>
<stop offset="1" stop-color="#313337"/>
</linearGradient>
<linearGradient id="paint70_linear_40_85" x1="-109.476" y1="7.03699" x2="144.724" y2="2.87603" gradientUnits="userSpaceOnUse">
<stop/>
<stop offset="1" stop-color="#313337"/>
</linearGradient>
<linearGradient id="paint71_linear_40_85" x1="-465.415" y1="12.8841" x2="132.446" y2="3.9168" gradientUnits="userSpaceOnUse">
<stop/>
<stop offset="1" stop-color="#313337"/>
</linearGradient>
<linearGradient id="paint72_linear_40_85" x1="-3.02516" y1="5.60802" x2="133.513" y2="3.31489" gradientUnits="userSpaceOnUse">
<stop/>
<stop offset="1" stop-color="#313337"/>
</linearGradient>
<linearGradient id="paint73_linear_40_85" x1="-715.137" y1="15.5948" x2="103.21" y2="2.93275" gradientUnits="userSpaceOnUse">
<stop/>
<stop offset="1" stop-color="#313337"/>
</linearGradient>
<linearGradient id="paint74_linear_40_85" x1="-74.7241" y1="6.05573" x2="121.449" y2="3.10297" gradientUnits="userSpaceOnUse">
<stop/>
<stop offset="1" stop-color="#313337"/>
</linearGradient>
<linearGradient id="paint75_linear_40_85" x1="-421.012" y1="16.16" x2="-9.47395" y2="9.92266" gradientUnits="userSpaceOnUse">
<stop/>
<stop offset="1" stop-color="#313337"/>
</linearGradient>
<linearGradient id="paint76_linear_40_85" x1="-352.994" y1="14.1664" x2="-8.71422" y2="8.59578" gradientUnits="userSpaceOnUse">
<stop/>
<stop offset="1" stop-color="#313337"/>
</linearGradient>
<linearGradient id="paint77_linear_40_85" x1="-275.38" y1="7.89238" x2="77.3453" y2="2.42172" gradientUnits="userSpaceOnUse">
<stop/>
<stop offset="1" stop-color="#313337"/>
</linearGradient>
<linearGradient id="paint78_linear_40_85" x1="-104.042" y1="5.24631" x2="74.0502" y2="2.30193" gradientUnits="userSpaceOnUse">
<stop/>
<stop offset="1" stop-color="#313337"/>
</linearGradient>
<linearGradient id="paint79_linear_40_85" x1="-559.669" y1="12.5811" x2="54.72" y2="3.92266" gradientUnits="userSpaceOnUse">
<stop/>
<stop offset="1" stop-color="#313337"/>
</linearGradient>
</defs>
</svg>
