<svg width="144" height="10" viewBox="0 0 144 10" fill="none" xmlns="http://www.w3.org/2000/svg">
<path d="M143.453 6.15977C143.662 6.12521 143.592 6.50934 143.625 6.57879C143.272 6.49377 143.461 6.05962 143.453 6.15977Z" fill="url(#paint0_linear_40_167)"/>
<path d="M139.964 5.28321L140.028 5.43986L139.51 5.05554L139.964 5.28321Z" fill="url(#paint1_linear_40_167)"/>
<path d="M136.713 5.2842C137.013 4.63201 137.893 5.39093 138.469 5.1601L138.563 5.01152L138.831 5.53731C138.127 5.33295 137.419 5.2483 136.713 5.2842Z" fill="url(#paint2_linear_40_167)"/>
<path d="M134.998 6.69384C135.101 6.43905 134.62 6.47348 135.401 6.61423C135.376 6.63276 135.352 6.65419 135.329 6.67845C135.259 6.67464 135.162 6.67505 134.998 6.69384Z" fill="url(#paint3_linear_40_167)"/>
<path d="M135.329 6.6791C135.67 6.69731 135.108 6.89288 135.329 6.6791Z" fill="url(#paint4_linear_40_167)"/>
<path d="M133.746 6.53405L134.2 6.75928C134.108 6.90987 133.707 6.94377 133.858 7.05323C133.393 6.93111 133.486 6.78151 133.746 6.53405Z" fill="url(#paint5_linear_40_167)"/>
<path d="M133.311 6.06024L133.545 6.15637C133.505 6.21806 133.444 6.23601 133.311 6.06024Z" fill="url(#paint6_linear_40_167)"/>
<path d="M134.045 6.3538L133.546 6.15228C133.611 6.05118 133.615 5.83476 133.775 6.22409C133.732 6.0338 133.832 6.21939 134.045 6.3538Z" fill="url(#paint7_linear_40_167)"/>
<path d="M134.324 6.25531C134.576 6.11202 134.901 6.02239 134.445 5.79811C135.309 5.88844 135.188 6.34664 134.324 6.25531Z" fill="url(#paint8_linear_40_167)"/>
<path d="M136.538 4.60525L136.873 4.41446L137.169 4.6331C137.022 4.52859 136.52 4.81359 136.538 4.60525Z" fill="url(#paint9_linear_40_167)"/>
<path d="M130.941 6.87878C130.91 6.74027 131.087 6.50831 131.118 6.33076L131.454 6.49012C131.284 6.58502 130.96 6.67341 130.941 6.87878Z" fill="url(#paint10_linear_40_167)"/>
<path d="M131.118 6.33265L130.616 6.09554C131.061 6.06197 131.144 6.17919 131.118 6.33265Z" fill="url(#paint11_linear_40_167)"/>
<path d="M133.221 5.33346L134.047 5.83268L133.061 5.32739L133.221 5.33346Z" fill="url(#paint12_linear_40_167)"/>
<path d="M129.037 6.90196L129.324 7.22233L128.814 6.73776L129.037 6.90196Z" fill="url(#paint13_linear_40_167)"/>
<path d="M127.773 6.84763C127.986 7.11306 127.493 7.29872 127.716 7.46295C127.407 7.39708 127.102 7.23393 126.81 6.97829C127.133 7.09556 127.462 7.05078 127.773 6.84763Z" fill="url(#paint14_linear_40_167)"/>
<path d="M126.363 6.68454C126.515 6.76347 126.665 6.86328 126.812 6.9831C126.658 6.92594 126.507 6.82554 126.363 6.68454Z" fill="url(#paint15_linear_40_167)"/>
<path d="M129.768 6.16168C129.668 6.40299 129.53 6.54554 129.381 6.55942L129.572 6.16697L129.768 6.16168Z" fill="url(#paint16_linear_40_167)"/>
<path d="M129.579 6.15857L129.572 6.16992L129.149 6.19323L129.579 6.15857Z" fill="url(#paint17_linear_40_167)"/>
<path d="M129.816 6.16261L129.768 6.16343C129.786 6.12512 129.797 6.11194 129.816 6.16261Z" fill="url(#paint18_linear_40_167)"/>
<path d="M131.919 5.69258C131.623 5.47358 131.009 5.24097 131.595 4.90696C131.809 5.17136 131.474 5.3611 131.919 5.69258Z" fill="url(#paint19_linear_40_167)"/>
<path d="M130.054 5.6725L130.582 5.58051C130.573 5.68068 130.48 5.83554 130.627 5.94407L130.054 5.6725Z" fill="url(#paint20_linear_40_167)"/>
<path d="M129.794 5.5488L130.054 5.67135L129.859 5.70592L129.794 5.5488Z" fill="url(#paint21_linear_40_167)"/>
<path d="M127.265 6.31602C127.014 6.16895 126.757 6.09896 126.5 6.10731C126.802 6.03024 127.106 5.99158 127.412 5.9917C127.455 6.10997 127.59 6.3295 127.265 6.31602Z" fill="url(#paint22_linear_40_167)"/>
<path d="M128.386 6.20533L128.337 6.18323C128.368 6.14669 128.392 6.13923 128.386 6.20533Z" fill="url(#paint23_linear_40_167)"/>
<path d="M123.718 6.12218L123.761 6.05065L123.772 6.11834L123.718 6.12218Z" fill="url(#paint24_linear_40_167)"/>
<path d="M127.461 5.91388C127.628 5.84744 127.8 5.89571 127.957 6.05245C127.786 6.01335 127.605 5.98971 127.412 5.98699C127.392 5.93133 127.388 5.89513 127.461 5.91388Z" fill="url(#paint25_linear_40_167)"/>
<path d="M125.586 6.50479C125.714 6.41742 125.845 6.34514 125.977 6.28815C125.861 6.41314 125.627 6.6051 125.586 6.50479Z" fill="url(#paint26_linear_40_167)"/>
<path d="M128.262 6.29236L128.296 6.31083C128.223 6.39509 128.232 6.35288 128.262 6.29236Z" fill="url(#paint27_linear_40_167)"/>
<path d="M128.262 6.29133C128.158 6.23411 128.055 6.1543 127.957 6.05331C128.085 6.07854 128.211 6.12204 128.337 6.1831C128.31 6.21133 128.285 6.24769 128.262 6.29133Z" fill="url(#paint28_linear_40_167)"/>
<path d="M122.838 3.61874C122.883 3.98003 123.487 4.30763 123.998 3.9189C124.511 4.18722 124.196 5.3817 123.761 6.05018C123.743 5.89247 123.741 5.75056 123.214 5.53547C123.395 5.33238 124.369 5.06605 123.922 4.74159C123.227 4.55939 123.356 4.8728 123.022 5.06651C123.302 4.61369 122.131 4.41592 122.272 3.75143L122.884 3.98081C122.894 3.87663 122.67 3.71261 122.838 3.61874Z" fill="url(#paint29_linear_40_167)"/>
<path d="M124.758 6.00856L124.974 6.05226C124.718 6.13863 124.47 6.30568 124.237 6.54875C123.876 6.37386 123.8 6.24012 123.773 6.11955L124.832 6.06248L124.758 6.00856Z" fill="url(#paint30_linear_40_167)"/>
<path d="M125.94 6.0474C125.767 5.65029 125.247 5.48894 125.558 5.0606C126.19 5.08586 126.007 5.38921 126.385 5.55881C125.362 5.46319 126.681 5.77785 125.949 6.00233C126.132 6.05949 126.316 6.09388 126.501 6.10575C126.318 6.15287 126.141 6.21226 125.976 6.28608L125.999 6.26128L126.004 6.2612L126.003 6.25534C126.047 6.20659 126.061 6.17655 126.011 6.20539C126.004 6.20076 125.997 6.19789 125.99 6.19745C125.98 6.14059 125.964 6.0898 125.943 6.0493C125.649 6.13131 125.898 6.15001 125.99 6.19745C125.995 6.21563 126 6.23511 126.003 6.25534L125.999 6.2603L124.974 6.04869C125.295 5.99583 125.618 5.99549 125.94 6.0474Z" fill="url(#paint31_linear_40_167)"/>
<path d="M131.037 4.05942C131.006 4.09494 131.008 4.12271 131.006 4.15175C130.94 4.10286 130.916 4.07048 131.037 4.05942Z" fill="url(#paint32_linear_40_167)"/>
<path d="M130.621 4.29873C130.738 4.44536 130.871 4.50522 131.002 4.47002C131.209 4.35148 130.998 4.28216 131.007 4.15299C131.154 4.25651 131.52 4.43441 131.067 4.62714L130.994 4.5732C130.686 4.6426 130.391 4.87658 130.136 5.25585C130.26 4.85267 130.427 4.52488 130.621 4.29873Z" fill="url(#paint33_linear_40_167)"/>
<path d="M128.25 5.073L127.397 4.88142L127.825 4.5401L127.806 4.74066C128.289 4.66344 128.188 4.91604 128.25 5.073Z" fill="url(#paint34_linear_40_167)"/>
<path d="M123.625 6.3199L123.744 6.73493L123.245 6.15054L123.625 6.3199Z" fill="url(#paint35_linear_40_167)"/>
<path d="M122.516 6.27588L122.562 6.63892L122.267 6.42027L122.516 6.27588Z" fill="url(#paint36_linear_40_167)"/>
<path d="M60.0692 2.7503L59.8186 2.65445C59.9029 2.67122 59.9867 2.70334 60.0692 2.7503Z" fill="url(#paint37_linear_40_167)"/>
<path d="M61.8788 2.68527L61.9254 2.86273C61.8417 2.76513 61.8065 2.6935 61.8788 2.68527Z" fill="url(#paint38_linear_40_167)"/>
<path d="M95.3728 6.52338C95.0145 6.86753 94.6167 7.39844 94.6537 6.99075L94.7583 6.58853C94.9644 6.64967 95.1725 6.62781 95.3728 6.52338Z" fill="url(#paint39_linear_40_167)"/>
<path d="M76.7431 4.48149L76.8476 4.35762L77.1 4.73327L76.7431 4.48149Z" fill="url(#paint40_linear_40_167)"/>
<path d="M76.4571 2.84066L75.9818 3.10561C76.1359 2.98455 76.295 2.89597 76.4571 2.84066Z" fill="url(#paint41_linear_40_167)"/>
<path d="M50.1814 2.56018L49.8829 2.1653C50.3393 2.15554 50.1421 2.36282 50.1814 2.56018Z" fill="url(#paint42_linear_40_167)"/>
<path d="M111.195 6.21938C110.94 6.35394 110.679 6.43658 110.415 6.46656C110.79 6.23416 111.092 5.88909 111.195 6.21938Z" fill="url(#paint43_linear_40_167)"/>
<path d="M60.8583 6.94913C60.7046 6.87973 60.6382 6.80164 60.6411 6.71157C60.7992 6.7729 60.8889 6.84859 60.8583 6.94913Z" fill="url(#paint44_linear_40_167)"/>
<path d="M109.508 6.4731C109.562 6.43217 109.617 6.41098 109.673 6.37703C109.919 6.45515 110.167 6.4845 110.415 6.46452C110.124 6.69023 109.806 6.69335 109.508 6.4731Z" fill="url(#paint45_linear_40_167)"/>
<path d="M14.3529 3.77047C14.3275 3.78791 14.297 3.79728 14.2743 3.81967C14.2656 3.76681 14.3009 3.76236 14.3529 3.77047Z" fill="url(#paint46_linear_40_167)"/>
<path d="M3.9884 8.02698C4.09181 8.04822 4.25958 8.0452 4.41729 8.04752C4.27495 8.07838 4.13105 8.07159 3.9884 8.02698Z" fill="url(#paint47_linear_40_167)"/>
<path d="M118.073 6.47745C118.307 6.50147 118.11 6.52082 118.073 6.47745Z" fill="url(#paint48_linear_40_167)"/>
<path d="M119.188 4.89777C119.138 4.85262 119.098 4.79945 119.092 4.70554C119.102 4.75009 119.116 4.79 119.132 4.82304C119.149 4.85608 119.168 4.88143 119.188 4.89777Z" fill="url(#paint49_linear_40_167)"/>
<path d="M107.134 4.02641L107.114 4.02674C107.18 3.9486 107.169 3.9628 107.134 4.02641Z" fill="url(#paint50_linear_40_167)"/>
<path d="M118.423 6.29461C118.325 6.34819 118.225 6.38773 118.124 6.41347C118.223 6.35988 118.322 6.32033 118.423 6.29461Z" fill="url(#paint51_linear_40_167)"/>
<path d="M118.378 6.48141L118.582 6.44182C118.612 6.5073 118.587 6.54988 118.378 6.48141Z" fill="url(#paint52_linear_40_167)"/>
<path d="M117.745 6.4569C117.872 6.46065 117.998 6.44603 118.124 6.41335C118.08 6.4401 118.06 6.46244 118.072 6.47723L117.745 6.4569Z" fill="url(#paint53_linear_40_167)"/>
<path d="M33.5725 4.35887C33.5572 4.37313 33.5397 4.38052 33.5227 4.39781C33.2852 4.23782 33.3886 4.26198 33.5725 4.35887Z" fill="url(#paint54_linear_40_167)"/>
<path d="M89.2037 2.49578C89.2127 2.50113 89.2217 2.50768 89.2304 2.51535L89.1965 2.53009L89.2037 2.49578Z" fill="url(#paint55_linear_40_167)"/>
<path d="M88.3555 2.21512C88.4787 2.40131 88.6177 2.52612 88.7627 2.58032C88.9077 2.63452 89.0553 2.61693 89.195 2.52902L88.936 3.67763L88.3555 2.21512Z" fill="url(#paint56_linear_40_167)"/>
<path d="M55.7363 2.73571L56.3213 2.3658C55.5969 1.79495 55.0839 2.00843 55.63 1.494C55.7364 2.73555 57.9305 1.5689 58.0351 2.80848L58.4201 2.53819C58.3089 2.55309 58.2894 2.48054 58.179 2.49442C58.9269 1.88154 58.7588 3.38474 59.7321 3.18014C60.0706 3.07436 60.3047 2.89203 60.07 2.74898L60.8341 3.03637C61.0557 3.0076 60.9965 2.79323 60.777 2.82097L61.9355 2.89554L61.9265 2.85858C62.1649 3.09734 62.4096 3.30049 62.6591 3.46642C62.95 3.28242 62.5094 3.33779 62.5819 3.18151L63.2278 3.47043C63.483 3.14299 62.9466 2.84201 62.5047 2.89954C63.0804 1.6454 63.0428 3.19958 64.3183 2.44769L63.7108 2.30319C64.0882 1.59057 64.5651 1.83563 65.2405 1.37702C65.0823 1.60878 63.8916 2.51222 64.5923 2.8074C64.8659 2.67404 65.1525 2.70634 65.4232 2.90121C65.4192 2.45915 65.787 2.56092 66.2457 2.57513L66.2042 1.9907C66.7026 2.14928 66.6691 2.44898 66.9649 2.70503C67.1222 2.73438 67.2786 2.66439 67.4165 2.50296C67.5544 2.34153 67.6684 2.0952 67.7454 1.7916C68.6274 1.67658 67.1476 2.53193 68.1961 2.61914C68.9079 2.4514 69.6308 2.5595 70.3338 2.93886C70.8451 2.73011 70.2389 2.58249 70.419 2.41138L70.8839 2.86846C70.9951 2.85456 70.9563 2.71313 70.9369 2.64044C71.3245 2.8129 70.9788 3.22362 71.5863 3.37033C71.7602 4.01056 72.8106 2.40245 73.5713 3.11973C73.7527 2.9496 73.4764 2.76426 73.5285 2.5363C74.1194 2.72621 74.7023 3.04796 75.2684 3.49627L75.9799 3.09783C75.4598 3.5478 76.1432 4.05556 76.7407 4.47153C76.5568 4.68572 76.4006 4.87727 76.2951 4.96509L77.2423 5.26011C77.3543 5.15818 77.2559 4.95978 77.0977 4.72139C77.1629 4.7683 77.2246 4.8194 77.2728 4.8586C77.6057 4.63587 77.4254 4.30149 77.1783 3.9786L76.8452 4.34667C76.606 3.99664 76.3817 3.60603 76.4243 3.2622C76.5245 3.34791 76.6295 3.39961 76.7356 3.41516C76.6731 3.31619 76.633 3.23364 76.66 3.17516C76.687 3.11669 76.7913 3.24026 76.9479 3.38664L77.1508 2.73066L77.2073 2.99003L78.4326 2.55697C79.3256 3.19498 80.1095 4.14718 81.5138 4.39039C81.1579 3.9183 81.4255 3.61052 81.3967 3.04384C81.025 3.65034 80.3088 2.80836 79.5853 2.94569C79.9626 2.87526 79.875 2.60745 79.777 2.51409L81.0798 3.03409C81.0426 2.57159 81.3488 2.68138 81.6835 2.48363C81.4442 3.40497 82.6584 3.07737 83.1899 3.34842C83.2171 3.03987 83.0856 2.72714 82.4443 2.81406C83.1431 2.11198 83.3787 3.87425 84.0642 3.27543C83.9073 3.2691 83.8237 3.31981 83.7589 3.16487C84.1299 3.43164 85.0215 3.19804 84.806 2.93362L84.6496 2.93042C85.6892 2.80372 87.8189 2.86856 87.9876 3.64392C87.9422 3.25734 87.8685 2.88843 87.7696 2.55307L89.6713 5.13673C89.4965 4.47251 90.0978 2.87006 89.2268 2.50876C89.58 2.34317 89.947 2.3463 90.3042 2.51828C90.1371 2.62115 89.8992 3.49231 90.1311 3.54838C90.5126 3.09711 90.9167 2.74518 91.3358 2.49879C91.0846 2.6461 91.384 3.68901 91.7836 3.65021C91.7183 3.49427 91.7997 2.61361 91.6513 2.50711L92.6658 3.52043C92.414 3.33966 92.6066 2.6491 92.8237 2.35432C92.7236 2.55608 93.6854 2.32361 93.9532 2.42109L93.5344 2.66558C94.658 2.49443 94.6693 4.09561 95.7862 4.0276C95.7211 3.9281 95.6718 3.7841 95.6458 3.61776C95.6199 3.45142 95.6188 3.27178 95.6428 3.10741C95.6668 2.94304 95.7145 2.80291 95.7785 2.70851C95.8425 2.61411 95.9192 2.57101 95.9967 2.58562C96.2655 3.10921 97.1914 5.10389 98.1855 5.49311L98.37 5.19008L99.1335 5.52193C98.3182 4.32386 97.4575 3.29564 96.5625 2.44999C96.9795 2.20583 96.6738 2.09382 97.3053 2.1111C97.5226 1.82532 96.9543 1.68912 96.7684 1.67527L98.2344 1.47012C98.1791 2.08424 99.3676 2.0699 99.3194 2.58286L97.7134 1.97033C97.6589 2.58443 98.6645 3.70027 99.7033 3.57858C99.9656 3.33005 99.4879 2.48212 99.5058 2.28176C99.8589 2.53489 100.23 2.61639 100.593 2.52116L100.146 2.19809C100.72 1.95928 101.105 3.00184 101.793 2.40698C102.033 2.3629 102.498 1.6045 102.546 1.9678C102.164 2.67448 102.123 4.8472 102.393 5.37176C102.911 5.1076 103.419 4.76081 103.913 4.33441C104.3 3.77967 103.297 3.02933 103.627 2.55359C103.644 2.72035 103.866 2.92602 103.958 2.99047C104.209 2.84417 103.846 2.47285 104.395 2.54054C104.494 3.16303 105.51 2.47487 104.662 3.06544C105.202 3.23632 105.231 2.92964 105.86 2.94496C105.665 3.34838 106.447 4.31055 106.987 4.48142C106.953 4.32296 107.07 4.11493 107.127 4.01991C108.226 3.94923 108.812 3.66301 109.837 3.64758C109.93 3.49597 110.421 3.30746 110.207 3.04103C110.397 3.24384 110.603 3.35711 110.811 3.37314C111.415 2.82672 110.105 3.29475 110.561 2.6428C110.607 3.00513 111.387 3.13526 111.841 3.35661C111.711 3.91899 110.802 3.47391 110.347 3.25257C110.357 4.02463 111.155 4.82547 112.232 5.17226C113.087 5.35779 112.594 4.66621 112.743 4.7787C114.34 4.62952 114.127 6.11258 115.447 5.54499C115.966 5.04701 115.456 4.56554 115.567 4.20955C114.87 4.03034 114.506 4.53241 114.036 4.51739L114.609 4.27857C114.303 4.07917 113.982 4.03286 113.671 4.14263C114.107 3.69908 116.372 4.02971 117.6 3.61671C117.823 3.78098 118.203 3.94865 118.027 4.1477L117.636 4.08109C117.283 4.47921 118.379 4.62445 117.888 4.81286C118.49 5.24947 119.121 5.4134 119.744 5.29464L119.874 4.7322C119.86 4.89648 119.397 5.06968 119.187 4.89919C119.499 5.14498 120.307 4.13362 120.653 4.86695L120.142 5.25808C120.735 5.73271 121.358 5.96609 121.982 5.94771C121.693 6.50178 121.83 5.88442 121.375 6.53534C121.766 5.72846 119.704 6.57954 120.34 5.72848C119.875 6.48461 119.519 6.05283 118.906 6.69844C118.923 6.51311 119.122 6.34255 118.574 6.43789C118.536 6.37209 118.495 6.31727 118.451 6.27489L118.415 6.28968L118.444 6.26817C118.42 6.24057 118.418 6.23431 118.456 6.25967C118.557 6.2141 118.651 6.1176 118.731 5.97708C118.452 5.5537 117.58 5.57155 117.282 5.35457C116.957 5.4451 117.421 5.56641 117.246 5.76544L116.801 5.43796C116.763 5.84972 115.946 6.12956 116.717 6.36153L116.027 6.38742C115.603 6.63911 115.158 6.69394 114.719 6.54934C114.395 6.64187 113.89 6.10261 114.179 6.42079L113.092 6.17698L113.084 6.27725C112.019 6.33837 110.874 5.61477 109.665 6.37054C109.222 6.21466 108.774 6.18091 108.331 6.27014L108.219 6.62614C107.755 6.50599 106.838 6.99772 106.634 6.63208C106.151 7.59357 104.396 6.86995 103.587 7.04775L103.549 6.5844C102.951 6.59014 102.352 6.49975 101.756 6.3145L101.794 5.90407C101.19 5.57424 100.261 6.21501 99.314 6.18409C99.3806 6.34101 99.6202 6.29587 99.7887 6.19898C98.6737 7.1382 97.3928 5.56068 96.3788 6.25011C96.1741 6.12571 95.9597 6.12936 95.7593 6.26064C95.7807 6.26015 95.802 6.26686 95.8227 6.28056C95.7965 6.28101 95.758 6.28667 95.7175 6.28235C95.6064 6.35526 95.4914 6.43901 95.3659 6.50617C95.4603 6.4097 95.559 6.3352 95.6606 6.28332C95.3962 6.2704 95.1318 6.22004 94.8691 6.13267L94.7514 6.57474L94.6837 6.56172C94.3991 6.72961 94.4487 6.35808 94.5968 6.02447C94.4631 5.96639 94.3319 5.87908 94.205 5.76396C93.9835 6.47893 93.4326 5.53611 93.1266 6.29953C92.9232 5.93189 91.6497 6.04346 91.4802 5.26911C91.4721 5.36928 91.3863 5.41954 91.545 5.42284C91.2345 5.56989 90.9113 5.56073 90.5983 5.39595L90.4693 5.95837L89.7433 5.21756C89.3161 5.56692 89.1396 5.76817 89.5773 6.19186C88.5278 5.54851 88.7293 5.95681 87.8367 5.3208L87.8872 5.68235C87.5717 5.67471 87.0585 5.19609 86.8731 5.49933C86.1787 6.19934 83.3807 5.65899 81.5787 6.32881C81.9119 5.25684 80.7431 6.82098 80.6584 5.99719C80.5575 6.25097 80.3078 6.40306 80.6049 6.61106C79.6757 6.38179 79.2221 7.03467 78.5713 6.35454C78.4699 6.60933 78.7757 6.72119 78.6841 6.87279C78.609 6.81905 78.3864 6.65889 78.2926 6.81253C78.1988 6.96617 78.4316 7.02005 78.5805 7.12755C77.6348 7.10362 77.5257 6.32935 77.444 5.60053C77.2781 5.78399 77.0926 5.86599 76.9055 5.83778C76.7185 5.80956 76.5365 5.67239 76.3773 5.4399C76.2149 5.68173 75.9416 5.9372 76.5296 6.01023C76.2003 6.05184 74.5182 6.39952 74.474 5.8161C74.2952 5.92018 74.1059 5.91584 73.9252 5.80346C73.1842 5.85306 73.1203 5.90728 72.391 5.86666L72.5914 5.76312C72.2913 5.06802 71.9835 5.61957 71.3954 5.54755L71.4135 5.61904C70.0771 6.15791 70.8281 5.38813 69.5098 5.99672L69.5743 5.55653C69.4335 4.61565 68.4083 6.13922 67.6312 5.78932L67.9045 5.53363C67.478 5.21879 66.7518 6.84182 66.3297 6.96803C66.2387 7.0526 66.4776 7.09648 66.6069 7.15429C65.5107 7.73609 66.4533 6.58254 65.6269 6.47056C65.4803 6.78314 65.837 7.25436 65.2834 7.32479C65.0115 7.58148 63.6557 6.35227 62.91 6.96512C63.0725 6.72128 63.2336 6.47927 62.8478 6.30778C62.2593 6.23676 61.2774 7.24683 60.734 6.50685C60.6605 6.57412 60.6336 6.63658 60.6315 6.69663C60.1797 6.51226 59.1678 6.40872 58.8899 6.00533C58.5032 7.53034 56.0879 5.33154 56.1236 6.72833L54.7423 6.68685L54.7811 6.82833C54.2681 6.98937 53.7407 6.80014 53.2664 6.28555C53.0643 6.38902 53.2156 6.51377 53.2338 6.58649C52.4041 6.95803 51.5384 6.8151 50.728 6.1729L50.6243 6.62889C50.3267 6.37088 48.774 7.38426 47.5003 6.88177C47.5137 6.93255 47.5418 7.0213 47.6427 7.0796C46.2128 6.58176 44.2615 8.41922 43.7099 6.78112L42.7639 6.39718C43.9757 6.23854 42.5701 5.68559 43.0641 5.39912C42.5851 5.31323 41.839 5.927 42.427 5.99703L42.5175 5.91246C42.7493 6.76777 41.0129 6.25403 41.058 6.83743C38.6688 6.85404 36.3488 7.38655 34.1115 7.4796L34.3572 6.80433L33.5773 6.86252C33.3752 7.02401 33.3118 7.39333 33.8685 7.35186C33.5828 7.73782 32.9284 7.05572 32.91 6.91099C31.8245 7.20852 33.3504 7.68053 33.0159 7.70922L32.5613 7.67104L32.6621 7.5902C32.3271 7.20049 31.9531 7.02633 31.5825 7.08741C31.1612 7.23061 31.3728 7.50503 31.2067 7.53387C31.2076 7.58187 31.1529 7.60577 30.9513 7.56019L29.9692 7.64087L30.3527 7.10343C29.9118 6.85485 29.4287 7.15423 29.8715 6.54553C29.2211 7.48386 26.209 6.96585 25.8053 7.26279C25.1573 6.94294 24.4944 6.84768 23.8397 6.9802C24.023 6.86605 24.1231 6.26922 23.4809 6.35916C23.7388 7.57813 22.3115 6.91996 21.8078 7.81478C22.2619 7.21789 19.9746 7.71608 20.6887 6.8677C20.1534 6.97683 20.665 7.32724 20.2627 7.62516C18.9754 7.18291 17.4501 8.0042 15.8666 7.88207C15.839 7.7215 16.099 7.46901 15.7557 7.23778L14.9359 8.0625C14.6238 7.99078 14.6315 7.14163 14.0717 7.71331C14.1493 7.57595 14.2662 7.36879 14.0557 7.32236C10.9737 8.18299 7.71684 6.82985 4.59861 8.38329C5.01869 8.06106 4.73437 8.03588 4.40914 8.03241C4.61925 7.95381 4.39703 7.63275 4.43512 7.41704L3.12921 8.05319C2.87876 7.45727 1.71734 8.04529 1.56941 7.47064L1.98821 7.56365C1.42113 6.89509 2.73634 6.02859 2.63881 5.15199C3.27367 5.91342 4.25468 3.96404 5.29353 5.05069C5.51518 4.86687 5.09644 4.77412 5.21284 4.56609C5.57411 4.96976 5.98504 5.06201 6.36609 4.82537L6.29926 4.73468C7.68288 4.68355 9.06227 4.47495 10.4323 4.11006L10.3064 4.54641C10.5307 4.51462 10.7506 4.40725 10.9589 4.2281C11.4203 4.87344 9.85875 4.2919 10.2818 5.00692C10.785 4.11311 13.0444 4.92586 13.3777 3.9159C13.9801 3.89466 13.2086 4.41913 13.8129 4.39986L13.9672 4.12518L14.1263 4.47024C14.5201 4.40252 14.7137 4.06028 14.7235 3.82904C14.5976 3.82676 14.4717 3.80207 14.3469 3.75534C14.8539 3.42263 15.7942 3.83096 15.9682 3.71997L15.3938 3.90166C17.0437 4.11468 19.0461 3.71073 20.6455 4.2207L20.5286 4.42782C21.7495 4.77617 21.4964 4.17992 22.8323 4.32126L22.7831 4.27423C23.1069 4.48636 23.4425 4.57389 23.7759 4.53331C23.4348 4.30304 24.4002 4.0516 23.9539 3.79912C25.2775 4.17673 24.6112 4.10093 25.4944 4.84013L25.6886 4.49591C25.9943 4.88321 26.3403 5.06748 26.6855 5.02697C26.1344 4.75026 27.1008 4.49986 26.4823 4.13026C27.8649 3.35354 28.5696 4.82808 29.1906 3.72621C29.8495 4.64928 27.9921 4.27872 28.3548 4.47061C28.0593 4.78372 28.8969 5.16169 29.3335 5.05424C29.7772 5.02169 30.0679 3.83421 31.1925 3.8221C31.0811 3.82899 31.072 3.75812 30.961 3.764C31.377 3.51586 31.7897 4.06728 32.2982 3.66752C32.5973 4.2266 32.9664 3.61721 33.0648 4.33974L32.0318 4.1971C32.6189 4.37317 33.1821 5.20571 34.1356 4.77138C33.9567 4.56627 33.766 4.42095 33.5699 4.33995C33.8474 4.12017 34.114 4.46873 34.4016 4.24278C34.3053 3.5192 33.1476 4.11586 32.5121 3.5745C32.8079 3.26038 33.7044 4.07078 33.3758 3.29314C33.8457 4.28044 34.4793 3.13995 35.2515 3.88204L35.1935 3.44931C35.3868 3.59315 35.5872 3.67671 35.789 3.69805L35.3798 3.14478C36.0038 3.60831 36.5582 2.69477 37.1532 2.94173C35.9173 2.96274 36.8854 3.47114 36.3682 3.80102C37.9029 4.3451 37.2237 2.64435 38.9346 2.81132C38.7022 2.75626 38.0718 3.09293 38.4366 3.28379C38.7615 3.21319 39.0792 3.04282 39.3808 2.77687C40.5134 2.84064 39.2153 3.22873 39.7016 3.48354C40.0767 2.94501 40.2607 3.68407 40.7592 3.84165L40.7548 3.40068C42.0377 3.08678 41.1132 4.31177 42.2672 3.94105L41.7657 3.34149L42.3732 3.48599L42.239 2.98812C42.7361 3.27612 43.2522 3.30977 43.7488 3.08652C43.6054 3.40205 43.8481 3.88512 44.4189 3.88542C44.8034 3.6138 44.1934 3.47229 45.0035 3.51454C44.9036 3.30824 44.7779 3.17767 44.6449 3.1421C44.5119 3.10654 44.3787 3.1679 44.2649 3.31707C44.2265 3.17468 44.0795 3.04415 44.0398 2.90378C44.4816 2.72185 44.9349 2.68867 45.385 2.8057C45.278 2.81274 45.1722 2.8498 45.0701 2.91606L46.254 3.49621C46.4355 3.32707 46.2867 3.19534 46.1398 3.0698C46.3781 3.11176 46.5459 3.31115 46.8956 3.34122C46.8006 2.98373 46.8139 2.61333 46.3159 2.45775L47.4403 2.82888C47.5123 2.67061 48.0059 2.38715 47.8584 2.25862C48.4743 2.03209 49.3911 2.91867 50.2069 2.61872C50.3026 2.72887 50.4073 2.79067 50.5134 2.79959C51.2834 2.69948 51.9592 2.24296 52.8827 2.7134L53.39 2.0586C54.1087 2.18742 52.7022 2.88435 53.8991 3.09908C54.7462 3.28473 54.2045 2.54277 54.4973 2.35774C55.1117 2.96074 55.7903 3.10615 56.4318 2.77273C56.2001 2.72497 55.9678 2.71271 55.7363 2.73571ZM64.5778 2.81936C64.4048 2.73028 64.0585 2.45134 63.9382 2.71546C64.1417 3.21614 64.2881 2.97231 64.5774 2.82035L64.5778 2.81936ZM78.0288 3.60222C77.8454 3.48734 77.6517 3.52631 77.4843 3.7116C77.668 3.74762 77.8522 3.71085 78.0284 3.6032L78.0288 3.60222ZM115.498 6.1351C115.492 6.12915 115.486 6.12224 115.48 6.11441C115.1 6.28991 115.234 6.22159 115.498 6.13608L115.498 6.1351ZM116.288 5.93655C116.369 5.9972 116.365 6.05938 116.332 6.11995C116.191 6.00233 116.04 5.97359 115.894 6.03654C115.95 5.92056 116.05 5.84056 116.288 5.93754L116.288 5.93655ZM31.1256 7.38432L31.2773 7.26697C30.9266 7.15189 31.0258 7.26389 31.1252 7.38824L31.1256 7.38432Z" fill="#52525B"/>
<path d="M76.495 3.03118C76.4589 3.08726 76.4342 3.17307 76.426 3.27116C76.358 3.19931 76.3548 3.11458 76.495 3.03118Z" fill="url(#paint57_linear_40_167)"/>
<path d="M50.2367 2.63324L50.21 2.63955C50.1977 2.61924 50.188 2.59163 50.1819 2.55994L50.2367 2.63324Z" fill="url(#paint58_linear_40_167)"/>
<path d="M103.943 2.32438C103.833 2.3561 103.727 2.435 103.632 2.55675C103.622 2.44791 103.694 2.35662 103.943 2.32438Z" fill="url(#paint59_linear_40_167)"/>
<path d="M120.502 6.66217L119.993 6.54972C120.148 6.56719 120.303 6.51737 120.448 6.40231C120.438 6.50649 120.344 6.65687 120.502 6.66217Z" fill="url(#paint60_linear_40_167)"/>
<path d="M124.872 3.90393C124.947 3.95766 125.03 3.90924 125.103 3.963L125.086 4.1684C124.769 4.15578 124.546 3.99248 124.872 3.90393Z" fill="url(#paint61_linear_40_167)"/>
<path d="M120.951 5.1913C120.985 4.81966 121.306 4.94326 121.663 5.01121C121.642 5.00814 121.621 5.0085 121.6 5.01228C121.712 5.52944 121.33 5.35988 120.951 5.1913Z" fill="url(#paint62_linear_40_167)"/>
<path d="M121.746 5.0224C121.855 5.04238 121.965 5.04504 122.074 5.03C122.119 5.23826 121.942 5.07307 121.746 5.0224Z" fill="url(#paint63_linear_40_167)"/>
<path d="M117.298 6.18061C117.465 6.08375 117.411 6.65493 117.504 6.50332C117.7 6.97406 116.371 5.93433 117.298 6.18061Z" fill="url(#paint64_linear_40_167)"/>
<path d="M121.221 3.96801L121.1 4.42619L120.895 4.05754L121.221 3.96801Z" fill="url(#paint65_linear_40_167)"/>
<path d="M118.416 4.32087L118.983 4.19012C118.975 4.26726 119.048 4.31223 119.137 4.34572C118.787 4.36268 118.404 4.45608 118.416 4.32087Z" fill="url(#paint66_linear_40_167)"/>
<path d="M119.137 4.34577C119.29 4.32109 119.445 4.34548 119.596 4.41806C119.443 4.41628 119.29 4.39209 119.137 4.34577Z" fill="url(#paint67_linear_40_167)"/>
<path d="M120.441 3.83458L120.274 3.9302L119.875 3.96727L120.441 3.83458Z" fill="url(#paint68_linear_40_167)"/>
<path d="M112.303 4.46113L111.679 4.33451C111.614 4.17861 111.782 4.08073 112.013 4.1418C112.165 4.24923 112.396 4.30853 112.303 4.46113Z" fill="url(#paint69_linear_40_167)"/>
<path d="M114.161 3.18894C114.058 3.24706 113.965 3.36895 113.893 3.54072L113.865 2.97275L114.161 3.18894Z" fill="url(#paint70_linear_40_167)"/>
<path d="M112.35 3.07469C112.285 2.91776 111.442 2.63209 112.229 2.65871C112.294 2.81463 112.918 2.94002 112.35 3.07469Z" fill="url(#paint71_linear_40_167)"/>
<path d="M103.008 3.89569L103.165 3.89986L103.158 4.83225L103.008 3.89569Z" fill="url(#paint72_linear_40_167)"/>
<path d="M94.7294 1.78005C95.4609 1.54658 94.9137 2.3518 95.5733 2.06555C95.7493 2.28259 95.0341 2.30074 95.2141 2.48871C94.7665 2.26228 94.5355 2.39643 94.7294 1.78005Z" fill="url(#paint73_linear_40_167)"/>
<path d="M95.215 2.48788C95.2919 2.52513 95.3679 2.57133 95.4429 2.62612C95.3652 2.59861 95.2888 2.5522 95.215 2.48788Z" fill="url(#paint74_linear_40_167)"/>
<path d="M2.26557 8.56699L1.796 8.77519L2.0957 8.45511L2.26557 8.56699Z" fill="url(#paint75_linear_40_167)"/>
<path d="M1.34563 7.89873L1.2447 8.4933L0.950939 7.96355C1.08376 8.0232 1.22023 8.00072 1.34563 7.89873Z" fill="url(#paint76_linear_40_167)"/>
<path d="M65.8697 1.59748L65.908 1.73845C65.8374 1.89467 65.7271 1.90893 65.5059 1.9377L65.8697 1.59748Z" fill="url(#paint77_linear_40_167)"/>
<path d="M59.4638 2.18323L59.5736 2.16818L59.3781 2.70967L59.4638 2.18323Z" fill="url(#paint78_linear_40_167)"/>
<path d="M54.0694 1.62265C54.2883 1.59493 54.5492 1.70836 54.769 1.67962C54.2888 1.59477 54.0226 2.29354 54.0694 1.62265Z" fill="url(#paint79_linear_40_167)"/>
<defs>
<linearGradient id="paint0_linear_40_167" x1="2.65758" y1="8.11674" x2="139.551" y2="5.85009" gradientUnits="userSpaceOnUse">
<stop/>
<stop offset="1" stop-color="#313337"/>
</linearGradient>
<linearGradient id="paint1_linear_40_167" x1="-202.622" y1="10.4924" x2="130.152" y2="5.23283" gradientUnits="userSpaceOnUse">
<stop/>
<stop offset="1" stop-color="#313337"/>
</linearGradient>
<linearGradient id="paint2_linear_40_167" x1="-1277.56" y1="28.5289" x2="98.079" y2="9.97046" gradientUnits="userSpaceOnUse">
<stop/>
<stop offset="1" stop-color="#313337"/>
</linearGradient>
<linearGradient id="paint3_linear_40_167" x1="-169.283" y1="11.4942" x2="126.629" y2="7.1157" gradientUnits="userSpaceOnUse">
<stop/>
<stop offset="1" stop-color="#313337"/>
</linearGradient>
<linearGradient id="paint4_linear_40_167" x1="23.861" y1="8.4786" x2="132.228" y2="6.80392" gradientUnits="userSpaceOnUse">
<stop/>
<stop offset="1" stop-color="#313337"/>
</linearGradient>
<linearGradient id="paint5_linear_40_167" x1="-315.627" y1="13.6706" x2="121.239" y2="6.76077" gradientUnits="userSpaceOnUse">
<stop/>
<stop offset="1" stop-color="#313337"/>
</linearGradient>
<linearGradient id="paint6_linear_40_167" x1="-22.3494" y1="8.56894" x2="129.054" y2="6.22208" gradientUnits="userSpaceOnUse">
<stop/>
<stop offset="1" stop-color="#313337"/>
</linearGradient>
<linearGradient id="paint7_linear_40_167" x1="-197.884" y1="11.2888" x2="124.479" y2="6.21577" gradientUnits="userSpaceOnUse">
<stop/>
<stop offset="1" stop-color="#313337"/>
</linearGradient>
<linearGradient id="paint8_linear_40_167" x1="-343.851" y1="13.4746" x2="121.239" y2="6.21623" gradientUnits="userSpaceOnUse">
<stop/>
<stop offset="1" stop-color="#313337"/>
</linearGradient>
<linearGradient id="paint9_linear_40_167" x1="-285.732" y1="11.343" x2="124.992" y2="5.2591" gradientUnits="userSpaceOnUse">
<stop/>
<stop offset="1" stop-color="#313337"/>
</linearGradient>
<linearGradient id="paint10_linear_40_167" x1="-218.828" y1="11.7539" x2="121.357" y2="6.27046" gradientUnits="userSpaceOnUse">
<stop/>
<stop offset="1" stop-color="#313337"/>
</linearGradient>
<linearGradient id="paint11_linear_40_167" x1="-206.025" y1="11.5743" x2="121.413" y2="6.61502" gradientUnits="userSpaceOnUse">
<stop/>
<stop offset="1" stop-color="#313337"/>
</linearGradient>
<linearGradient id="paint12_linear_40_167" x1="-520.902" y1="15.941" x2="115.181" y2="6.22138" gradientUnits="userSpaceOnUse">
<stop/>
<stop offset="1" stop-color="#313337"/>
</linearGradient>
<linearGradient id="paint13_linear_40_167" x1="-207.079" y1="11.972" x2="119.623" y2="6.72345" gradientUnits="userSpaceOnUse">
<stop/>
<stop offset="1" stop-color="#313337"/>
</linearGradient>
<linearGradient id="paint14_linear_40_167" x1="-554.395" y1="17.8517" x2="108.18" y2="7.59639" gradientUnits="userSpaceOnUse">
<stop/>
<stop offset="1" stop-color="#313337"/>
</linearGradient>
<linearGradient id="paint15_linear_40_167" x1="-170.884" y1="11.4423" x2="118.233" y2="6.91255" gradientUnits="userSpaceOnUse">
<stop/>
<stop offset="1" stop-color="#313337"/>
</linearGradient>
<linearGradient id="paint16_linear_40_167" x1="-133.984" y1="10.268" x2="122.168" y2="6.15013" gradientUnits="userSpaceOnUse">
<stop/>
<stop offset="1" stop-color="#313337"/>
</linearGradient>
<linearGradient id="paint17_linear_40_167" x1="-159.169" y1="11.0409" x2="121.271" y2="10.3311" gradientUnits="userSpaceOnUse">
<stop/>
<stop offset="1" stop-color="#313337"/>
</linearGradient>
<linearGradient id="paint18_linear_40_167" x1="97.6318" y1="6.64381" x2="128.889" y2="6.15353" gradientUnits="userSpaceOnUse">
<stop/>
<stop offset="1" stop-color="#313337"/>
</linearGradient>
<linearGradient id="paint19_linear_40_167" x1="-243.284" y1="10.5165" x2="121.09" y2="4.55897" gradientUnits="userSpaceOnUse">
<stop/>
<stop offset="1" stop-color="#313337"/>
</linearGradient>
<linearGradient id="paint20_linear_40_167" x1="-249.815" y1="11.6957" x2="119.664" y2="5.94341" gradientUnits="userSpaceOnUse">
<stop/>
<stop offset="1" stop-color="#313337"/>
</linearGradient>
<linearGradient id="paint21_linear_40_167" x1="-42.7367" y1="8.32913" x2="125.076" y2="5.7275" gradientUnits="userSpaceOnUse">
<stop/>
<stop offset="1" stop-color="#313337"/>
</linearGradient>
<linearGradient id="paint22_linear_40_167" x1="-526.016" y1="16.7872" x2="108.669" y2="7.75482" gradientUnits="userSpaceOnUse">
<stop/>
<stop offset="1" stop-color="#313337"/>
</linearGradient>
<linearGradient id="paint23_linear_40_167" x1="94.6086" y1="6.68137" x2="127.413" y2="6.15409" gradientUnits="userSpaceOnUse">
<stop/>
<stop offset="1" stop-color="#313337"/>
</linearGradient>
<linearGradient id="paint24_linear_40_167" x1="87.5914" y1="6.59719" x2="122.728" y2="6.02448" gradientUnits="userSpaceOnUse">
<stop/>
<stop offset="1" stop-color="#313337"/>
</linearGradient>
<linearGradient id="paint25_linear_40_167" x1="-244.272" y1="12.0393" x2="117.244" y2="6.95612" gradientUnits="userSpaceOnUse">
<stop/>
<stop offset="1" stop-color="#313337"/>
</linearGradient>
<linearGradient id="paint26_linear_40_167" x1="-138.681" y1="10.5569" x2="118.356" y2="6.57786" gradientUnits="userSpaceOnUse">
<stop/>
<stop offset="1" stop-color="#313337"/>
</linearGradient>
<linearGradient id="paint27_linear_40_167" x1="90.2125" y1="6.87601" x2="127.198" y2="6.27674" gradientUnits="userSpaceOnUse">
<stop/>
<stop offset="1" stop-color="#313337"/>
</linearGradient>
<linearGradient id="paint28_linear_40_167" x1="-124.986" y1="10.1187" x2="121.04" y2="6.28748" gradientUnits="userSpaceOnUse">
<stop/>
<stop offset="1" stop-color="#313337"/>
</linearGradient>
<linearGradient id="paint29_linear_40_167" x1="-1210.66" y1="23.9268" x2="85.7722" y2="2.85674" gradientUnits="userSpaceOnUse">
<stop/>
<stop offset="1" stop-color="#313337"/>
</linearGradient>
<linearGradient id="paint30_linear_40_167" x1="-680.554" y1="19.1861" x2="101.786" y2="7.51208" gradientUnits="userSpaceOnUse">
<stop/>
<stop offset="1" stop-color="#313337"/>
</linearGradient>
<linearGradient id="paint31_linear_40_167" x1="-896.071" y1="21.2388" x2="97.0262" y2="5.48543" gradientUnits="userSpaceOnUse">
<stop/>
<stop offset="1" stop-color="#313337"/>
</linearGradient>
<linearGradient id="paint32_linear_40_167" x1="73.382" y1="4.95096" x2="129.375" y2="4.04727" gradientUnits="userSpaceOnUse">
<stop/>
<stop offset="1" stop-color="#313337"/>
</linearGradient>
<linearGradient id="paint33_linear_40_167" x1="-649.442" y1="16.3707" x2="108.788" y2="4.2265" gradientUnits="userSpaceOnUse">
<stop/>
<stop offset="1" stop-color="#313337"/>
</linearGradient>
<linearGradient id="paint34_linear_40_167" x1="-441.558" y1="13.6984" x2="111.832" y2="5.09098" gradientUnits="userSpaceOnUse">
<stop/>
<stop offset="1" stop-color="#313337"/>
</linearGradient>
<linearGradient id="paint35_linear_40_167" x1="-203.724" y1="11.1369" x2="114.296" y2="5.97134" gradientUnits="userSpaceOnUse">
<stop/>
<stop offset="1" stop-color="#313337"/>
</linearGradient>
<linearGradient id="paint36_linear_40_167" x1="-72.734" y1="9.24404" x2="116.927" y2="6.15934" gradientUnits="userSpaceOnUse">
<stop/>
<stop offset="1" stop-color="#313337"/>
</linearGradient>
<linearGradient id="paint37_linear_40_167" x1="-106.787" y1="5.39014" x2="55.2651" y2="3.00545" gradientUnits="userSpaceOnUse">
<stop/>
<stop offset="1" stop-color="#313337"/>
</linearGradient>
<linearGradient id="paint38_linear_40_167" x1="6.1127" y1="3.46128" x2="60.3123" y2="2.56315" gradientUnits="userSpaceOnUse">
<stop/>
<stop offset="1" stop-color="#313337"/>
</linearGradient>
<linearGradient id="paint39_linear_40_167" x1="-394.134" y1="14.2627" x2="81.2714" y2="6.70939" gradientUnits="userSpaceOnUse">
<stop/>
<stop offset="1" stop-color="#313337"/>
</linearGradient>
<linearGradient id="paint40_linear_40_167" x1="-159.259" y1="8.0048" x2="70.2825" y2="4.29832" gradientUnits="userSpaceOnUse">
<stop/>
<stop offset="1" stop-color="#313337"/>
</linearGradient>
<linearGradient id="paint41_linear_40_167" x1="-245.071" y1="8.05877" x2="67.1995" y2="3.28591" gradientUnits="userSpaceOnUse">
<stop/>
<stop offset="1" stop-color="#313337"/>
</linearGradient>
<linearGradient id="paint42_linear_40_167" x1="-154.697" y1="5.25717" x2="44.2827" y2="2.01422" gradientUnits="userSpaceOnUse">
<stop/>
<stop offset="1" stop-color="#313337"/>
</linearGradient>
<linearGradient id="paint43_linear_40_167" x1="-414.234" y1="14.6535" x2="96.0668" y2="6.96491" gradientUnits="userSpaceOnUse">
<stop/>
<stop offset="1" stop-color="#313337"/>
</linearGradient>
<linearGradient id="paint44_linear_40_167" x1="-86.5424" y1="8.98089" x2="56.6129" y2="6.66714" gradientUnits="userSpaceOnUse">
<stop/>
<stop offset="1" stop-color="#313337"/>
</linearGradient>
<linearGradient id="paint45_linear_40_167" x1="-497.464" y1="16.4436" x2="92.9249" y2="8.27034" gradientUnits="userSpaceOnUse">
<stop/>
<stop offset="1" stop-color="#313337"/>
</linearGradient>
<linearGradient id="paint46_linear_40_167" x1="-39.6282" y1="4.63455" x2="12.7983" y2="3.81842" gradientUnits="userSpaceOnUse">
<stop/>
<stop offset="1" stop-color="#313337"/>
</linearGradient>
<linearGradient id="paint47_linear_40_167" x1="-282.805" y1="12.8601" x2="-3.83718" y2="10.6174" gradientUnits="userSpaceOnUse">
<stop/>
<stop offset="1" stop-color="#313337"/>
</linearGradient>
<linearGradient id="paint48_linear_40_167" x1="42.7544" y1="7.73149" x2="116.016" y2="6.76319" gradientUnits="userSpaceOnUse">
<stop/>
<stop offset="1" stop-color="#313337"/>
</linearGradient>
<linearGradient id="paint49_linear_40_167" x1="56.8486" y1="5.57659" x2="117.387" y2="4.57412" gradientUnits="userSpaceOnUse">
<stop/>
<stop offset="1" stop-color="#313337"/>
</linearGradient>
<linearGradient id="paint50_linear_40_167" x1="74.2339" y1="4.48227" x2="106.213" y2="3.96604" gradientUnits="userSpaceOnUse">
<stop/>
<stop offset="1" stop-color="#313337"/>
</linearGradient>
<linearGradient id="paint51_linear_40_167" x1="-82.8226" y1="9.60598" x2="112.631" y2="6.75708" gradientUnits="userSpaceOnUse">
<stop/>
<stop offset="1" stop-color="#313337"/>
</linearGradient>
<linearGradient id="paint52_linear_40_167" x1="-24.7805" y1="8.80779" x2="114.466" y2="6.81158" gradientUnits="userSpaceOnUse">
<stop/>
<stop offset="1" stop-color="#313337"/>
</linearGradient>
<linearGradient id="paint53_linear_40_167" x1="-136.393" y1="10.6793" x2="110.807" y2="7.84577" gradientUnits="userSpaceOnUse">
<stop/>
<stop offset="1" stop-color="#313337"/>
</linearGradient>
<linearGradient id="paint54_linear_40_167" x1="-91.5534" y1="6.29201" x2="29.9677" y2="4.4026" gradientUnits="userSpaceOnUse">
<stop/>
<stop offset="1" stop-color="#313337"/>
</linearGradient>
<linearGradient id="paint55_linear_40_167" x1="66.3124" y1="2.85194" x2="88.5697" y2="2.49402" gradientUnits="userSpaceOnUse">
<stop/>
<stop offset="1" stop-color="#313337"/>
</linearGradient>
<linearGradient id="paint56_linear_40_167" x1="-469.905" y1="10.2847" x2="73.066" y2="1.3368" gradientUnits="userSpaceOnUse">
<stop/>
<stop offset="1" stop-color="#313337"/>
</linearGradient>
<linearGradient id="paint57_linear_40_167" x1="-1.96618" y1="4.13458" x2="74.2317" y2="2.87353" gradientUnits="userSpaceOnUse">
<stop/>
<stop offset="1" stop-color="#313337"/>
</linearGradient>
<linearGradient id="paint58_linear_40_167" x1="14.3789" y1="3.0913" x2="49.2017" y2="2.52068" gradientUnits="userSpaceOnUse">
<stop/>
<stop offset="1" stop-color="#313337"/>
</linearGradient>
<linearGradient id="paint59_linear_40_167" x1="-107.543" y1="5.70051" x2="97.8515" y2="2.47099" gradientUnits="userSpaceOnUse">
<stop/>
<stop offset="1" stop-color="#313337"/>
</linearGradient>
<linearGradient id="paint60_linear_40_167" x1="-219.782" y1="11.9346" x2="110.701" y2="6.90744" gradientUnits="userSpaceOnUse">
<stop/>
<stop offset="1" stop-color="#313337"/>
</linearGradient>
<linearGradient id="paint61_linear_40_167" x1="-137.573" y1="8.10678" x2="117.537" y2="4.1125" gradientUnits="userSpaceOnUse">
<stop/>
<stop offset="1" stop-color="#313337"/>
</linearGradient>
<linearGradient id="paint62_linear_40_167" x1="-357.616" y1="12.6632" x2="107.86" y2="5.46532" gradientUnits="userSpaceOnUse">
<stop/>
<stop offset="1" stop-color="#313337"/>
</linearGradient>
<linearGradient id="paint63_linear_40_167" x1="-102.302" y1="8.72005" x2="115.623" y2="5.5971" gradientUnits="userSpaceOnUse">
<stop/>
<stop offset="1" stop-color="#313337"/>
</linearGradient>
<linearGradient id="paint64_linear_40_167" x1="-252.414" y1="11.9488" x2="106.859" y2="6.21146" gradientUnits="userSpaceOnUse">
<stop/>
<stop offset="1" stop-color="#313337"/>
</linearGradient>
<linearGradient id="paint65_linear_40_167" x1="-98.1632" y1="7.25738" x2="114.896" y2="3.77583" gradientUnits="userSpaceOnUse">
<stop/>
<stop offset="1" stop-color="#313337"/>
</linearGradient>
<linearGradient id="paint66_linear_40_167" x1="-364.232" y1="12.2158" x2="105.23" y2="5.82285" gradientUnits="userSpaceOnUse">
<stop/>
<stop offset="1" stop-color="#313337"/>
</linearGradient>
<linearGradient id="paint67_linear_40_167" x1="-187.323" y1="9.46365" x2="110.77" y2="5.82842" gradientUnits="userSpaceOnUse">
<stop/>
<stop offset="1" stop-color="#313337"/>
</linearGradient>
<linearGradient id="paint68_linear_40_167" x1="-260.317" y1="10.1887" x2="109.491" y2="5.4702" gradientUnits="userSpaceOnUse">
<stop/>
<stop offset="1" stop-color="#313337"/>
</linearGradient>
<linearGradient id="paint69_linear_40_167" x1="-328.437" y1="11.2758" x2="99.63" y2="4.74833" gradientUnits="userSpaceOnUse">
<stop/>
<stop offset="1" stop-color="#313337"/>
</linearGradient>
<linearGradient id="paint70_linear_40_167" x1="-81.7175" y1="5.74911" x2="108.507" y2="2.60513" gradientUnits="userSpaceOnUse">
<stop/>
<stop offset="1" stop-color="#313337"/>
</linearGradient>
<linearGradient id="paint71_linear_40_167" x1="-348.078" y1="10.0734" x2="99.3157" y2="3.13764" gradientUnits="userSpaceOnUse">
<stop/>
<stop offset="1" stop-color="#313337"/>
</linearGradient>
<linearGradient id="paint72_linear_40_167" x1="-2.05571" y1="4.77555" x2="100.12" y2="3.05426" gradientUnits="userSpaceOnUse">
<stop/>
<stop offset="1" stop-color="#313337"/>
</linearGradient>
<linearGradient id="paint73_linear_40_167" x1="-534.959" y1="11.7157" x2="77.4305" y2="2.00503" gradientUnits="userSpaceOnUse">
<stop/>
<stop offset="1" stop-color="#313337"/>
</linearGradient>
<linearGradient id="paint74_linear_40_167" x1="-55.7134" y1="4.91653" x2="91.0876" y2="2.63494" gradientUnits="userSpaceOnUse">
<stop/>
<stop offset="1" stop-color="#313337"/>
</linearGradient>
<linearGradient id="paint75_linear_40_167" x1="-314.833" y1="13.5389" x2="-6.8687" y2="8.72849" gradientUnits="userSpaceOnUse">
<stop/>
<stop offset="1" stop-color="#313337"/>
</linearGradient>
<linearGradient id="paint76_linear_40_167" x1="-263.936" y1="11.8364" x2="-6.30265" y2="7.61466" gradientUnits="userSpaceOnUse">
<stop/>
<stop offset="1" stop-color="#313337"/>
</linearGradient>
<linearGradient id="paint77_linear_40_167" x1="-205.877" y1="5.89483" x2="58.0763" y2="1.702" gradientUnits="userSpaceOnUse">
<stop/>
<stop offset="1" stop-color="#313337"/>
</linearGradient>
<linearGradient id="paint78_linear_40_167" x1="-77.6582" y1="3.9818" x2="55.6129" y2="1.76277" gradientUnits="userSpaceOnUse">
<stop/>
<stop offset="1" stop-color="#313337"/>
</linearGradient>
<linearGradient id="paint79_linear_40_167" x1="-418.619" y1="9.36729" x2="41.142" y2="2.55159" gradientUnits="userSpaceOnUse">
<stop/>
<stop offset="1" stop-color="#313337"/>
</linearGradient>
</defs>
</svg>
