<svg width="95" height="9" viewBox="0 0 95 9" fill="none" xmlns="http://www.w3.org/2000/svg">
<path d="M94.5094 6.15881C94.6479 6.12545 94.6034 6.50914 94.6254 6.57877C94.3912 6.49174 94.5139 6.05872 94.5094 6.15881Z" fill="url(#paint0_linear_40_249)"/>
<path d="M92.2013 5.26219L92.2442 5.4192L91.9002 5.03192L92.2013 5.26219Z" fill="url(#paint1_linear_40_249)"/>
<path d="M90.0555 5.24438C90.2496 4.59398 90.8348 5.35791 91.2137 5.13044L91.2745 4.98241L91.4546 5.5097C90.989 5.30129 90.5213 5.21256 90.0555 5.24438Z" fill="url(#paint2_linear_40_249)"/>
<path d="M88.9314 6.64399C88.9983 6.38982 88.6807 6.42147 89.197 6.56671C89.1809 6.5851 89.1652 6.60639 89.1498 6.63051C89.1034 6.6263 89.0398 6.62615 88.9314 6.64399Z" fill="url(#paint3_linear_40_249)"/>
<path d="M89.15 6.63116C89.3764 6.65132 89.0049 6.84366 89.15 6.63116Z" fill="url(#paint4_linear_40_249)"/>
<path d="M88.1044 6.47698L88.4052 6.70481C88.3453 6.85485 88.0809 6.88644 88.181 6.99675C87.8737 6.87196 87.9342 6.72291 88.1044 6.47698Z" fill="url(#paint5_linear_40_249)"/>
<path d="M87.8146 6.00067L87.9706 6.09813C87.9444 6.15959 87.9036 6.17718 87.8146 6.00067Z" fill="url(#paint6_linear_40_249)"/>
<path d="M88.3007 6.29846L87.9704 6.09408C88.0121 5.99336 88.0136 5.77699 88.1217 6.16721C88.0921 5.97668 88.1594 6.16284 88.3007 6.29846Z" fill="url(#paint7_linear_40_249)"/>
<path d="M88.4844 6.20159C88.6493 6.05977 88.8635 5.97204 88.5613 5.74514C89.1321 5.84045 89.0549 6.29791 88.4844 6.20159Z" fill="url(#paint8_linear_40_249)"/>
<path d="M89.9357 4.56448L90.1559 4.37565L90.3522 4.59598C90.2546 4.49062 89.9249 4.77269 89.9357 4.56448Z" fill="url(#paint9_linear_40_249)"/>
<path d="M86.2546 6.80543C86.2338 6.66676 86.3492 6.43585 86.3687 6.25849L86.591 6.41977C86.4795 6.51368 86.2664 6.6002 86.2546 6.80543Z" fill="url(#paint10_linear_40_249)"/>
<path d="M86.3688 6.26039L86.0361 6.02041C86.3295 5.98941 86.3849 6.10709 86.3688 6.26039Z" fill="url(#paint11_linear_40_249)"/>
<path d="M87.751 5.27344L88.2989 5.77739L87.6453 5.26645L87.751 5.27344Z" fill="url(#paint12_linear_40_249)"/>
<path d="M84.9983 6.81763L85.1896 7.13962L84.8501 6.65216L84.9983 6.81763Z" fill="url(#paint13_linear_40_249)"/>
<path d="M84.1638 6.75599C84.3058 7.02261 83.9815 7.20541 84.1297 7.37091C83.9251 7.30326 83.7228 7.13836 83.5287 6.88106C83.743 7.00019 83.9598 6.95731 84.1638 6.75599Z" fill="url(#paint14_linear_40_249)"/>
<path d="M83.2319 6.58475C83.3327 6.66455 83.4323 6.76521 83.5302 6.88587C83.4281 6.82783 83.3279 6.72657 83.2319 6.58475Z" fill="url(#paint15_linear_40_249)"/>
<path d="M85.4766 6.08162C85.4121 6.32233 85.3215 6.46406 85.2236 6.47709L85.3471 6.08577L85.4766 6.08162Z" fill="url(#paint16_linear_40_249)"/>
<path d="M85.3516 6.07741L85.3471 6.08872L85.0678 6.10958L85.3516 6.07741Z" fill="url(#paint17_linear_40_249)"/>
<path d="M85.5091 6.08283L85.4766 6.08338C85.4886 6.04517 85.4957 6.03205 85.5091 6.08283Z" fill="url(#paint18_linear_40_249)"/>
<path d="M86.8936 5.62502C86.6969 5.40433 86.2905 5.16819 86.675 4.8376C86.8178 5.10321 86.5977 5.291 86.8936 5.62502Z" fill="url(#paint19_linear_40_249)"/>
<path d="M85.6627 5.59417L86.0105 5.50523C86.0052 5.60534 85.9445 5.75965 86.0419 5.86901L85.6627 5.59417Z" fill="url(#paint20_linear_40_249)"/>
<path d="M85.4902 5.46896L85.6634 5.59299L85.5343 5.62644L85.4902 5.46896Z" fill="url(#paint21_linear_40_249)"/>
<path d="M83.8252 6.22148C83.6589 6.07298 83.4887 6.0015 83.3192 6.00837C83.5181 5.93306 83.7188 5.89616 83.9202 5.89804C83.9498 6.01656 84.0397 6.23684 83.8252 6.22148Z" fill="url(#paint22_linear_40_249)"/>
<path d="M84.5657 6.11729L84.532 6.09491C84.5527 6.05855 84.569 6.05122 84.5657 6.11729Z" fill="url(#paint23_linear_40_249)"/>
<path d="M81.4832 6.00719L81.5117 5.9359L81.5196 6.00364L81.4832 6.00719Z" fill="url(#paint24_linear_40_249)"/>
<path d="M83.9527 5.82052C84.0619 5.75504 84.1761 5.80431 84.2805 5.96194C84.1675 5.92186 84.0481 5.89717 83.9205 5.89334C83.907 5.83756 83.904 5.80134 83.9527 5.82052Z" fill="url(#paint25_linear_40_249)"/>
<path d="M82.7182 6.40054C82.8024 6.31393 82.8882 6.24241 82.9751 6.18618C82.8993 6.31049 82.7463 6.50108 82.7182 6.40054Z" fill="url(#paint26_linear_40_249)"/>
<path d="M84.4839 6.20359L84.5068 6.22224C84.4577 6.30609 84.4638 6.26394 84.4839 6.20359Z" fill="url(#paint27_linear_40_249)"/>
<path d="M84.4834 6.20258C84.414 6.14477 84.3461 6.06437 84.2806 5.96283C84.3649 5.98879 84.449 6.03302 84.5322 6.0948C84.5145 6.12287 84.4981 6.15908 84.4834 6.20258Z" fill="url(#paint28_linear_40_249)"/>
<path d="M80.8879 3.49891C80.9199 3.86042 81.3203 4.19148 81.6552 3.80573C81.9952 4.07699 81.7941 5.26954 81.5112 5.93544C81.4982 5.77764 81.4961 5.63573 81.1474 5.41762C81.2654 5.21559 81.9066 4.95491 81.61 4.62791C81.1499 4.4417 81.2373 4.75583 81.0178 4.94759C81.1998 4.49643 80.426 4.29192 80.5153 3.62831L80.9202 3.8612C80.926 3.75709 80.7778 3.59179 80.8879 3.49891Z" fill="url(#paint29_linear_40_249)"/>
<path d="M82.1687 5.89958L82.3117 5.94452C82.1432 6.0294 81.9804 6.195 81.8279 6.4367C81.5886 6.25974 81.5377 6.12558 81.5195 6.00487L82.2183 5.95392L82.1687 5.89958Z" fill="url(#paint30_linear_40_249)"/>
<path d="M82.9496 5.94526C82.8326 5.54719 82.4886 5.38284 82.6913 4.95634C83.1085 4.98525 82.99 5.28752 83.2403 5.45929C82.5644 5.35776 83.4369 5.68001 82.9547 5.90024C83.076 5.95845 83.1979 5.9939 83.3197 6.00684C83.1994 6.0529 83.0831 6.11127 82.9745 6.18412L82.9893 6.15945L82.9925 6.1594L82.9924 6.15354C83.0209 6.10505 83.0298 6.07509 82.9974 6.10364C82.9928 6.09898 82.988 6.09607 82.9832 6.09558C82.9762 6.03867 82.9653 5.98779 82.9514 5.94718C82.7578 6.02748 82.9223 6.04761 82.9832 6.09558C82.9868 6.11379 82.9901 6.1333 82.9924 6.15354L82.9896 6.15847L82.3117 5.94096C82.5233 5.88997 82.7364 5.89149 82.9496 5.94526Z" fill="url(#paint31_linear_40_249)"/>
<path d="M86.3032 3.9869C86.2829 4.02225 86.2842 4.05002 86.283 4.07905C86.2382 4.0298 86.2214 3.99729 86.3032 3.9869Z" fill="url(#paint32_linear_40_249)"/>
<path d="M86.0289 4.22378C86.1068 4.37107 86.1951 4.43169 86.281 4.39726C86.4174 4.27992 86.2778 4.20939 86.283 4.08028C86.3803 4.18464 86.6231 4.36464 86.325 4.55473L86.2763 4.50038C86.0733 4.56799 85.8806 4.80024 85.7139 5.178C85.794 4.77558 85.902 4.44879 86.0289 4.22378Z" fill="url(#paint33_linear_40_249)"/>
<path d="M84.4685 4.98428L83.9041 4.78779L84.185 4.44899L84.1732 4.64941C84.4914 4.57499 84.4262 4.82698 84.4685 4.98428Z" fill="url(#paint34_linear_40_249)"/>
<path d="M81.4226 6.20431L81.5035 6.61998L81.1711 6.03278L81.4226 6.20431Z" fill="url(#paint35_linear_40_249)"/>
<path d="M80.6906 6.15392L80.7231 6.51719L80.5271 6.29685L80.6906 6.15392Z" fill="url(#paint36_linear_40_249)"/>
<path d="M39.455 2.26772L39.2881 2.17044C39.3442 2.18769 39.4 2.22029 39.455 2.26772Z" fill="url(#paint37_linear_40_249)"/>
<path d="M40.6487 2.21317L40.6812 2.39086C40.6241 2.29282 40.5999 2.221 40.6487 2.21317Z" fill="url(#paint38_linear_40_249)"/>
<path d="M62.777 6.24449C62.5425 6.58653 62.283 7.1151 62.3051 6.70766L62.3718 6.30608C62.5082 6.3684 62.6454 6.34775 62.777 6.24449Z" fill="url(#paint39_linear_40_249)"/>
<path d="M50.4692 4.09514L50.5374 3.97189L50.7062 4.34896L50.4692 4.09514Z" fill="url(#paint40_linear_40_249)"/>
<path d="M50.2709 2.45284L49.9588 2.71502C50.0597 2.59485 50.1642 2.5072 50.2709 2.45284Z" fill="url(#paint41_linear_40_249)"/>
<path d="M32.9268 2.02049L32.7275 1.62392C33.0287 1.6168 32.8997 1.82292 32.9268 2.02049Z" fill="url(#paint42_linear_40_249)"/>
<path d="M73.2184 6.03199C73.0506 6.16506 72.8788 6.24618 72.7052 6.27463C72.951 6.04442 73.1483 5.70113 73.2184 6.03199Z" fill="url(#paint43_linear_40_249)"/>
<path d="M39.9999 6.4707C39.8975 6.40043 39.853 6.32197 39.8544 6.23193C39.9597 6.29415 40.0197 6.37035 39.9999 6.4707Z" fill="url(#paint44_linear_40_249)"/>
<path d="M72.1063 6.27593C72.142 6.23531 72.1777 6.21444 72.2143 6.18082C72.3775 6.26036 72.5416 6.29113 72.7048 6.27259C72.5142 6.49659 72.304 6.49787 72.1063 6.27593Z" fill="url(#paint45_linear_40_249)"/>
<path d="M9.28749 3.02357C9.27038 3.04086 9.24984 3.05007 9.23459 3.07233C9.22838 3.01943 9.25224 3.01517 9.28749 3.02357Z" fill="url(#paint46_linear_40_249)"/>
<path d="M2.46997 7.21979C2.53834 7.24163 2.64906 7.23958 2.75317 7.24281C2.6594 7.27284 2.56438 7.26522 2.46997 7.21979Z" fill="url(#paint47_linear_40_249)"/>
<path d="M77.7592 6.32977C77.9151 6.35513 77.7844 6.37335 77.7592 6.32977Z" fill="url(#paint48_linear_40_249)"/>
<path d="M78.487 4.7567C78.4533 4.71127 78.4264 4.65787 78.4219 4.56393C78.4286 4.60854 78.4378 4.64852 78.449 4.68165C78.4602 4.71479 78.4731 4.74024 78.487 4.7567Z" fill="url(#paint49_linear_40_249)"/>
<path d="M70.5254 3.81576L70.5119 3.81599C70.5566 3.73822 70.5489 3.75235 70.5254 3.81576Z" fill="url(#paint50_linear_40_249)"/>
<path d="M77.9892 6.14898C77.9248 6.20198 77.8593 6.24094 77.793 6.2661C77.8574 6.21308 77.9229 6.17412 77.9892 6.14898Z" fill="url(#paint51_linear_40_249)"/>
<path d="M77.961 6.33551L78.0956 6.29708C78.1164 6.36273 78.0995 6.40516 77.961 6.33551Z" fill="url(#paint52_linear_40_249)"/>
<path d="M77.5427 6.30734C77.6265 6.31181 77.71 6.29793 77.7926 6.26597C77.7638 6.29247 77.7504 6.31469 77.7586 6.32955L77.5427 6.30734Z" fill="url(#paint53_linear_40_249)"/>
<path d="M21.9756 3.723C21.9656 3.73718 21.954 3.74446 21.9428 3.76165C21.7842 3.60032 21.8531 3.62507 21.9756 3.723Z" fill="url(#paint54_linear_40_249)"/>
<path d="M58.6821 2.18164C58.6882 2.18705 58.6942 2.19364 58.7001 2.20136L58.6775 2.21591L58.6821 2.18164Z" fill="url(#paint55_linear_40_249)"/>
<path d="M58.1206 1.89612C58.203 2.083 58.2954 2.2086 58.3914 2.26364C58.4875 2.31867 58.5848 2.30193 58.6765 2.21484L58.5122 3.36184L58.1206 1.89612Z" fill="url(#paint56_linear_40_249)"/>
<path d="M36.5942 2.22814L36.9782 1.86164C36.4967 1.28666 36.1594 1.49715 36.5168 0.98593C36.5942 2.22797 38.0357 1.07412 38.1119 2.31419L38.3644 2.04614C38.2911 2.0604 38.2778 1.98775 38.2051 2.00099C38.6951 1.39248 38.5928 2.89457 39.2341 2.69561C39.4569 2.5918 39.6103 2.41085 39.4546 2.26645L39.9606 2.55823C40.1067 2.53074 40.0663 2.31605 39.9217 2.34252L40.6867 2.42378L40.6805 2.38676C40.8393 2.62689 41.002 2.83143 41.1676 2.99878C41.3586 2.81648 41.0681 2.8693 41.115 2.71346L41.543 3.00607C41.7095 2.68015 41.3537 2.3761 41.0624 2.43107C41.4351 1.18037 41.4193 2.73419 42.2568 1.98974L41.855 1.84174C42.1 1.13137 42.4162 1.37917 42.8593 0.924508C42.7562 1.15533 41.9756 2.0518 42.4397 2.351C42.6195 2.21923 42.8089 2.25319 42.9887 2.4496C42.9835 2.00756 43.2269 2.11145 43.5297 2.12831L43.4989 1.5437C43.8288 1.70514 43.8084 2.00462 44.0051 2.26235C44.1091 2.29261 44.2119 2.22353 44.302 2.06291C44.3921 1.9023 44.4659 1.65665 44.515 1.35352C45.0965 1.24361 44.1247 2.09033 44.8173 2.18359C45.2861 2.01998 45.7638 2.13225 46.23 2.51563C46.5663 2.30986 46.1654 2.15875 46.2832 1.9887L46.5927 2.44841C46.666 2.43516 46.6396 2.29352 46.6264 2.22072C46.8832 2.39541 46.6574 2.80409 47.0592 2.9543C47.1777 3.59547 47.8616 1.99359 48.3679 2.7152C48.4867 2.54613 48.3032 2.35921 48.3363 2.13158C48.7274 2.32488 49.1139 2.64997 49.4902 3.10151L49.9575 2.70722C49.6168 3.15414 50.0708 3.6658 50.4676 4.08518C50.3475 4.29828 50.2455 4.48891 50.1763 4.57611L50.8032 4.87658C50.8765 4.7753 50.8104 4.57635 50.7046 4.33708C50.7479 4.38436 50.789 4.43582 50.821 4.47528C51.0394 4.25451 50.9186 3.91912 50.7536 3.59483L50.5358 3.96094C50.3759 3.60955 50.2256 3.21769 50.2517 2.87414C50.3184 2.96042 50.388 3.01272 50.4581 3.02888C50.4163 2.92957 50.3894 2.84679 50.4068 2.78847C50.4243 2.73016 50.4939 2.85432 50.5981 3.00159L50.7282 2.34685L50.767 2.60652L51.5732 2.18059C52.1663 2.82369 52.6892 3.78034 53.6175 4.03163C53.3799 3.55753 53.5547 3.25133 53.5324 2.68454C53.2906 3.28883 52.813 2.44279 52.3363 2.57593C52.5849 2.50769 52.5255 2.2394 52.4603 2.14548L53.3232 2.67296C53.296 2.21029 53.4987 2.32184 53.7184 2.12605C53.5658 3.0459 54.3654 2.72536 54.7177 2.99945C54.7339 2.69109 54.6453 2.37763 54.2225 2.46084C54.6797 1.76287 54.8454 3.52633 55.2943 2.93153C55.1907 2.92429 55.1359 2.97451 55.0922 2.81921C55.3386 3.0881 55.9257 2.85967 55.782 2.59404L55.6787 2.58993C56.3641 2.46925 57.7702 2.5464 57.886 3.32265C57.8538 2.93585 57.8031 2.56655 57.7358 2.23065L59.0059 4.82505C58.8867 4.15988 59.2743 2.56107 58.6973 2.19477C58.9295 2.03124 59.1717 2.03649 59.4085 2.21052C59.2988 2.31241 59.1468 3.1821 59.3002 3.23951C59.5494 2.79049 59.8141 2.44093 60.0893 2.19699C59.9244 2.34284 60.128 3.38737 60.3915 3.35088C60.3475 3.19458 60.3961 2.31448 60.2976 2.20713L60.973 3.22622C60.8058 3.04401 60.9289 2.35463 61.0705 2.06114C61.0056 2.2623 61.6391 2.0354 61.8163 2.13442L61.5414 2.37647C62.282 2.21183 62.2987 3.81291 63.0355 3.75137C62.9919 3.65151 62.9585 3.50723 62.9405 3.34076C62.9224 3.17429 62.9206 2.99466 62.9355 2.83044C62.9504 2.66623 62.9811 2.52638 63.0228 2.43236C63.0644 2.33834 63.1148 2.29569 63.1661 2.31075C63.3465 2.83584 63.9691 4.83568 64.6275 5.2306L64.7476 4.92867L65.2534 5.2649C64.7084 4.06224 64.1343 3.02914 63.5388 2.1784C63.8126 1.93668 63.6101 1.82291 64.027 1.84383C64.1688 1.55934 63.7929 1.41987 63.6701 1.40495L64.6365 1.20829C64.6036 1.82203 65.3879 1.81456 65.3591 2.32719L64.2956 1.70544C64.2632 2.31917 64.9333 3.44071 65.6182 3.32503C65.7899 3.07804 65.4697 2.22743 65.4804 2.0272C65.7149 2.28234 65.9601 2.36598 66.1996 2.27286L65.9026 1.94724C66.2797 1.71177 66.5402 2.75646 66.991 2.16563C67.1486 2.12293 67.4515 1.3673 67.4849 1.73084C67.2374 2.43524 67.2228 4.60751 67.4041 5.13358C67.7443 4.87244 68.0774 4.52862 68.4009 4.10511C68.6533 3.55267 67.9873 2.79661 68.2021 2.32282C68.2143 2.48966 68.362 2.69659 68.4232 2.76157C68.5876 2.61674 68.3458 2.24336 68.7088 2.31421C68.778 2.93721 69.4442 2.25499 68.8883 2.84061C69.2454 3.01459 69.2628 2.70811 69.6779 2.72706C69.5519 3.12931 70.0735 4.0959 70.4309 4.26988C70.4074 4.11124 70.4833 3.9039 70.5209 3.80923C71.2454 3.7449 71.6308 3.4621 72.3072 3.4526C72.3674 3.30153 72.6908 3.11589 72.5476 2.84824C72.6744 3.05213 72.8109 3.16658 72.9485 3.18381C73.3438 2.64094 72.4818 3.10134 72.7792 2.4521C72.8114 2.81466 73.3273 2.94928 73.6281 3.17324C73.5453 3.7348 72.9428 3.28452 72.6415 3.06058C72.6525 3.83261 73.184 4.63798 73.8967 4.99097C74.462 5.18142 74.1324 4.48706 74.2319 4.6004C75.2849 4.46046 75.1527 5.94215 76.0206 5.38224C76.3607 4.88731 76.0209 4.40294 76.0922 4.04763C75.6312 3.86441 75.3941 4.36432 75.0836 4.34659L75.4607 4.11111C75.2571 3.90996 75.0453 3.86179 74.8403 3.96976C75.126 3.52878 76.6225 3.87246 77.4309 3.4666C77.5785 3.63214 77.8309 3.80199 77.7158 4L77.4569 3.93114C77.2262 4.32717 77.9508 4.47874 77.6274 4.66429C78.0273 5.10434 78.4448 5.2719 78.8553 5.15675L78.9381 4.59512C78.93 4.75931 78.6251 4.92981 78.4859 4.75813C78.6927 5.00568 79.2202 3.9991 79.4529 4.73436L79.1177 5.12249C79.5121 5.60051 79.9248 5.83747 80.3362 5.82269C80.1486 6.37504 80.2357 5.75853 79.9392 6.40675C80.1926 5.60222 78.8364 6.44129 79.2512 5.594C78.9485 6.34736 78.7116 5.91357 78.3106 6.55557C78.3204 6.37035 78.4512 6.20096 78.0899 6.29313C78.0646 6.22711 78.037 6.17206 78.0079 6.12944L77.9838 6.14401L78.0034 6.12268C77.9874 6.09494 77.9858 6.08867 78.0109 6.11425C78.0771 6.06926 78.1387 5.97331 78.1911 5.83327C78.0044 5.40832 77.4289 5.42113 77.2305 5.20244C77.0172 5.29109 77.3239 5.41507 77.2097 5.61307L76.9136 5.28305C76.8913 5.69455 76.3536 5.96964 76.8636 6.20604L76.4084 6.22794C76.13 6.47715 75.8368 6.52941 75.5462 6.38229C75.3329 6.47294 74.9962 5.93081 75.1887 6.25063L74.4703 6.00056L74.4653 6.10077C73.7626 6.15573 73.003 5.42558 72.2093 6.17429C71.916 6.01587 71.62 5.97954 71.328 6.06619L71.2563 6.42151C70.9496 6.29869 70.347 6.78508 70.2103 6.41829C69.8971 7.37689 68.7349 6.6432 68.2019 6.81631L68.1741 6.35278C67.7792 6.35507 67.3832 6.26123 66.9891 6.07255L67.0115 5.66238C66.6109 5.32909 66.0014 5.96443 65.3764 5.92804C65.4213 6.08532 65.5791 6.04158 65.6898 5.94567C64.9592 6.87835 64.1047 5.29358 63.4395 5.97708C63.3036 5.85152 63.1622 5.85392 63.0306 5.98403C63.0447 5.98367 63.0589 5.9905 63.0726 6.00432C63.0553 6.00462 63.0299 6.01005 63.0032 6.0055C62.9302 6.07776 62.8548 6.16084 62.7724 6.22726C62.8341 6.13136 62.8989 6.05743 62.9656 6.00614C62.791 5.99169 62.6162 5.93981 62.4424 5.85093L62.3672 6.29227L62.3224 6.27887C62.1356 6.44509 62.1662 6.07389 62.262 5.74117C62.1734 5.68232 62.0863 5.59426 62.0019 5.47842C61.8598 6.19204 61.4908 5.24613 61.2932 6.00771C61.1568 5.63892 60.3169 5.74312 60.2006 4.96787C60.1958 5.06798 60.1395 5.11774 60.2442 5.12196C60.0402 5.2672 59.8268 5.25618 59.6193 5.0896L59.5374 5.65122L59.0539 4.90629C58.774 5.25315 58.6586 5.45336 58.95 5.87953C58.2535 5.23018 58.3889 5.6396 57.7961 4.99849L57.8315 5.3603C57.6232 5.35084 57.2817 4.86931 57.1611 5.17144C56.7068 5.86737 54.857 5.3109 53.6715 5.97024C53.8852 4.9003 53.1228 6.45754 53.0622 5.63333C52.997 5.88651 52.8331 6.03713 53.0304 6.24684C52.4158 6.01222 52.1202 6.66241 51.6867 5.97858C51.6213 6.23277 51.8237 6.34638 51.7641 6.49744C51.7143 6.44327 51.5664 6.28184 51.5054 6.43492C51.4444 6.588 51.5984 6.64322 51.6972 6.75158C51.0729 6.72218 50.9964 5.94736 50.9383 5.21813C50.8299 5.40062 50.7079 5.48154 50.5843 5.45224C50.4607 5.42295 50.3397 5.28474 50.2334 5.05135C50.1275 5.29222 49.9486 5.54609 50.3372 5.62251C50.12 5.66221 49.0118 6.00014 48.9793 5.41652C48.8619 5.51956 48.7369 5.51412 48.617 5.4007C48.1282 5.44602 48.0863 5.49986 47.6048 5.45503L47.7364 5.35267C47.5343 4.6559 47.3344 5.20562 46.9458 5.1302L46.9582 5.20179C46.0792 5.73288 46.5705 4.96752 45.7039 5.56842L45.7439 5.12865C45.6455 4.18705 44.9777 5.70455 44.4627 5.3502L44.6416 5.09611C44.3583 4.77883 43.8884 6.39751 43.6105 6.52127C43.551 6.6053 43.7089 6.65055 43.7946 6.70911C43.0744 7.28452 43.6899 6.13653 43.1438 6.01978C43.0488 6.33148 43.287 6.80472 42.922 6.87194C42.744 7.12704 41.8421 5.89011 41.3535 6.49859C41.4593 6.25572 41.5642 6.01466 41.3086 5.84096C40.9198 5.76654 40.2775 6.77083 39.9146 6.02779C39.8665 6.09462 39.849 6.15693 39.848 6.21696C39.5488 6.02999 38.8803 5.92062 38.6945 5.51566C38.4481 7.03829 36.8412 4.82574 36.8729 6.2226L35.961 6.17314L35.9874 6.31483C35.6497 6.47289 35.3005 6.28063 34.9845 5.76335C34.8517 5.86564 34.9523 5.99126 34.9647 6.06407C34.4193 6.43078 33.847 6.28286 33.3085 5.63604L33.2426 6.09139C33.0447 5.83168 32.0258 6.83599 31.1822 6.32618C31.1913 6.37704 31.2104 6.46594 31.2774 6.52482C30.3307 6.01876 29.0534 7.84476 28.6799 6.20363L28.0532 5.81427C28.8521 5.66265 27.9212 5.10163 28.2456 4.81804C27.929 4.72939 27.4401 5.33879 27.8286 5.41221L27.8878 5.32817C28.0458 6.18473 26.8968 5.66101 26.9299 6.24462C25.353 6.24742 23.8249 6.76646 22.3487 6.84657L22.507 6.17279L21.9926 6.22647C21.8602 6.38677 21.8204 6.75569 22.1877 6.71744C22.0013 7.10172 21.5654 6.4159 21.5524 6.27107C20.8377 6.56231 21.8476 7.04309 21.627 7.06984L21.3267 7.02904L21.3928 6.94879C21.1694 6.55718 20.9215 6.38087 20.6773 6.4398C20.4 6.58056 20.5413 6.85618 20.4319 6.88405C20.4327 6.93205 20.3967 6.95564 20.2634 6.90889L19.6157 6.98388L19.8657 6.44872C19.5733 6.19762 19.2561 6.49417 19.5448 5.88809C19.121 6.82256 17.1299 6.2872 16.8652 6.58178C16.4357 6.25821 15.9976 6.15913 15.5662 6.28785C15.6866 6.17478 15.7492 5.57859 15.3258 5.66481C15.5031 6.88515 14.5572 6.21879 14.23 7.11061C14.5262 6.5164 13.0194 7.00133 13.4858 6.15716C13.1332 6.26318 13.4729 6.61651 13.2091 6.91208C12.3569 6.46243 11.3549 7.27482 10.3091 7.14356C10.2899 6.98284 10.46 6.73188 10.2321 6.49869L9.69582 7.31858C9.48936 7.24507 9.48955 6.39605 9.12339 6.96444C9.17383 6.82754 9.24977 6.62108 9.11059 6.57343C7.08135 7.41616 4.92393 6.04433 2.8748 7.5796C3.15021 7.25983 2.9624 7.23301 2.74772 7.22766C2.88595 7.15029 2.73742 6.82797 2.76131 6.6125L1.90306 7.24104C1.73431 6.64374 0.971148 7.22499 0.870195 6.64954L1.14715 6.74495C0.768995 6.07319 1.63206 5.21437 1.56262 4.3373C1.98604 5.10232 2.62226 3.15879 3.31421 4.25135C3.45944 4.06883 3.18253 3.97367 3.25815 3.76632C3.49893 4.17204 3.77069 4.26667 4.02082 4.03225L3.97618 3.94118C4.88911 3.89805 5.79834 3.69744 6.70046 3.34051L6.61991 3.77609C6.76778 3.7456 6.91231 3.63951 7.04871 3.46158C7.35698 4.10953 6.32297 3.51902 6.60633 4.23641C6.9333 3.3456 8.42922 4.17133 8.64338 3.1634C9.04088 3.14563 8.53471 3.6656 8.93342 3.64982L9.03369 3.37606L9.1407 3.722C9.4002 3.65657 9.52599 3.31547 9.53115 3.08432C9.44804 3.08131 9.36479 3.05589 9.28216 3.00845C9.61485 2.6787 10.2378 3.09242 10.3521 2.98245L9.97397 3.1608C11.0642 3.38334 12.3835 2.99101 13.4421 3.51016L13.3661 3.71659C14.1739 4.07197 14.0034 3.47431 14.886 3.62335L14.8533 3.57604C15.0681 3.79002 15.2902 3.87949 15.51 3.84084C15.2835 3.60862 15.9193 3.36279 15.6233 3.10774C16.499 3.49297 16.0588 3.41332 16.646 4.15756L16.7722 3.8145C16.9762 4.20353 17.2056 4.38978 17.4332 4.35127C17.0679 4.0714 17.7043 3.82661 17.294 3.45347C18.202 2.68482 18.6757 4.16329 19.0791 3.06511C19.5194 3.9919 18.2913 3.61064 18.5318 3.80461C18.3386 4.11598 18.8936 4.49876 19.1812 4.39384C19.4738 4.36386 19.6588 3.17818 20.401 3.17256C20.3275 3.17881 20.3211 3.10789 20.2479 3.11313C20.521 2.86742 20.7966 3.42117 21.1299 3.02439C21.3306 3.58514 21.5706 2.97794 21.6398 3.70098L20.9571 3.55238C21.3457 3.73183 21.7222 4.56753 22.349 4.13876C22.2297 3.93264 22.1031 3.78623 21.9731 3.7041C22.155 3.48595 22.333 3.83602 22.5215 3.61175C22.4538 2.88769 21.6931 3.47759 21.2705 2.93262C21.464 2.62024 22.0603 3.43574 21.839 2.65627C22.1548 3.64619 22.5664 2.50947 23.0804 3.25595L23.0396 2.82293C23.168 2.96788 23.3008 3.05259 23.4341 3.07509L23.1608 2.51951C23.5753 2.9866 23.936 2.07636 24.3301 2.32673C23.5145 2.3406 24.1564 2.85454 23.817 3.1814C24.833 3.73429 24.3749 2.02979 25.5051 2.20663C25.3514 2.15023 24.9373 2.48323 25.1792 2.67617C25.3932 2.60746 25.6019 2.43894 25.7995 2.17476C26.5473 2.24507 25.6928 2.62562 26.0152 2.88322C26.2597 2.34691 26.3854 3.08696 26.7153 3.2474L26.7099 2.80645C27.5548 2.5 26.9517 3.71952 27.7112 3.3555L27.3768 2.7531L27.7786 2.9011L27.6871 2.40251C28.0169 2.69335 28.3577 2.72998 28.6842 2.50962C28.5914 2.82429 28.7543 3.30872 29.1311 3.31232C29.3833 3.04295 28.9799 2.89793 29.5148 2.94485C29.4477 2.73799 29.364 2.60672 29.276 2.57038C29.188 2.53405 29.1004 2.59464 29.0262 2.74314C29 2.60054 28.9022 2.46917 28.8752 2.32859C29.1657 2.14923 29.4647 2.11867 29.7625 2.23829C29.6919 2.24471 29.6223 2.28115 29.5553 2.34682L30.3401 2.93375C30.4589 2.76568 30.3599 2.63311 30.2622 2.50673C30.4198 2.55006 30.5316 2.7504 30.7626 2.78248C30.6979 2.42448 30.7045 2.0542 30.3749 1.89575L31.1192 2.27335C31.1658 2.11551 31.4899 1.83493 31.3919 1.70556C31.797 1.48261 32.4073 2.3744 32.944 2.07919C33.0078 2.18989 33.0772 2.25228 33.1473 2.26182C33.6549 2.16617 34.0984 1.71361 34.7106 2.18934L35.0417 1.53753C35.5168 1.67049 34.5925 2.35923 35.3837 2.58084C35.9439 2.77138 35.5821 2.02635 35.7742 1.84304C36.1833 2.44953 36.632 2.59885 37.0534 2.26917C36.9003 2.22007 36.7468 2.20648 36.5942 2.22814ZM42.4302 2.36288C42.3156 2.2728 42.0854 1.99189 42.0075 2.25529C42.1447 2.7571 42.2399 2.51413 42.43 2.36386L42.4302 2.36288ZM51.3127 3.2234C51.191 3.10747 51.0634 3.14531 50.954 3.32963C51.0755 3.3667 51.1968 3.331 51.3125 3.22438L51.3127 3.2234ZM76.0581 5.97259C76.0539 5.96661 76.0498 5.95966 76.0458 5.9518C75.7963 6.12509 75.8843 6.05755 76.0578 5.97357L76.0581 5.97259ZM76.5784 5.77863C76.6319 5.83974 76.6295 5.90188 76.6082 5.96226C76.5145 5.84384 76.4144 5.81423 76.3189 5.87633C76.3553 5.76068 76.4202 5.68127 76.5781 5.77961L76.5784 5.77863ZM20.3774 6.73405L20.4769 6.61758C20.2447 6.50049 20.3109 6.61305 20.3772 6.73796L20.3774 6.73405Z" fill="#52525B"/>
<path d="M50.2977 2.64354C50.274 2.69941 50.258 2.78507 50.2532 2.8831C50.2075 2.81087 50.2049 2.72613 50.2977 2.64354Z" fill="url(#paint57_linear_40_249)"/>
<path d="M32.9646 2.09386L32.9466 2.10002C32.9381 2.07964 32.9314 2.05199 32.9271 2.02026L32.9646 2.09386Z" fill="url(#paint58_linear_40_249)"/>
<path d="M68.4092 2.09546C68.3368 2.12654 68.2676 2.20483 68.2053 2.32601C68.1978 2.21712 68.245 2.12626 68.4092 2.09546Z" fill="url(#paint59_linear_40_249)"/>
<path d="M79.3638 6.52851L79.0268 6.41313C79.1295 6.43149 79.2313 6.38257 79.3265 6.26836C79.3207 6.37248 79.259 6.52229 79.3638 6.52851Z" fill="url(#paint60_linear_40_249)"/>
<path d="M82.2321 3.79579C82.282 3.84995 82.336 3.80202 82.385 3.85619L82.3747 4.06147C82.1658 4.04702 82.0176 3.88245 82.2321 3.79579Z" fill="url(#paint61_linear_40_249)"/>
<path d="M79.6513 5.06038C79.672 4.68898 79.8842 4.81442 80.1202 4.88442C80.1063 4.88123 80.0924 4.88147 80.0786 4.88513C80.1557 5.40289 79.9028 5.23113 79.6513 5.06038Z" fill="url(#paint62_linear_40_249)"/>
<path d="M80.175 4.89609C80.2475 4.9167 80.32 4.91999 80.392 4.90558C80.4229 5.11409 80.3048 4.94789 80.175 4.89609Z" fill="url(#paint63_linear_40_249)"/>
<path d="M77.2463 6.02848C77.356 5.9326 77.3235 6.5034 77.3843 6.35235C77.516 6.82418 76.6329 5.77686 77.2463 6.02848Z" fill="url(#paint64_linear_40_249)"/>
<path d="M79.8224 3.83877L79.7452 4.2962L79.6079 3.92641L79.8224 3.83877Z" fill="url(#paint65_linear_40_249)"/>
<path d="M77.9732 4.17539L78.3466 4.04794C78.342 4.12502 78.3905 4.17041 78.4494 4.20441C78.2184 4.21934 77.9665 4.31053 77.9732 4.17539Z" fill="url(#paint66_linear_40_249)"/>
<path d="M78.4494 4.20448C78.5503 4.18068 78.6525 4.20596 78.7529 4.27941C78.6517 4.27675 78.5503 4.25167 78.4494 4.20448Z" fill="url(#paint67_linear_40_249)"/>
<path d="M79.3072 3.70087L79.1977 3.79552L78.9345 3.83027L79.3072 3.70087Z" fill="url(#paint68_linear_40_249)"/>
<path d="M73.9397 4.28029L73.5271 4.15008C73.4828 3.99381 73.5932 3.89691 73.7464 3.95931C73.8473 4.06762 74.0001 4.12824 73.9397 4.28029Z" fill="url(#paint69_linear_40_249)"/>
<path d="M75.1583 3.01897C75.0907 3.07649 75.0302 3.19783 74.9834 3.36916L74.9617 2.80109L75.1583 3.01897Z" fill="url(#paint70_linear_40_249)"/>
<path d="M73.9622 2.89427C73.9188 2.73698 73.3605 2.44646 73.8801 2.47763C73.9241 2.63391 74.3363 2.76289 73.9622 2.89427Z" fill="url(#paint71_linear_40_249)"/>
<path d="M67.8014 3.66119L67.9057 3.66626L67.906 4.59852L67.8014 3.66119Z" fill="url(#paint72_linear_40_249)"/>
<path d="M62.3249 1.49792C62.8064 1.2687 62.4499 2.07068 62.8836 1.78827C63.001 2.00631 62.5291 2.02032 62.6489 2.20931C62.3522 1.98032 62.2006 2.11312 62.3249 1.49792Z" fill="url(#paint73_linear_40_249)"/>
<path d="M62.6495 2.2085C62.7008 2.24617 62.7515 2.2928 62.8016 2.34802C62.7499 2.32007 62.6989 2.27323 62.6495 2.2085Z" fill="url(#paint74_linear_40_249)"/>
<path d="M1.33599 7.74977L1.02726 7.95525L1.22322 7.63693L1.33599 7.74977Z" fill="url(#paint75_linear_40_249)"/>
<path d="M0.724925 7.07628L0.661744 7.67021L0.464794 7.13882C0.552804 7.19922 0.642749 7.17754 0.724925 7.07628Z" fill="url(#paint76_linear_40_249)"/>
<path d="M43.2758 1.14857L43.302 1.28974C43.2563 1.44554 43.1835 1.45916 43.0377 1.48665L43.2758 1.14857Z" fill="url(#paint77_linear_40_249)"/>
<path d="M39.0515 1.69723L39.1244 1.68281L38.9977 2.22313L39.0515 1.69723Z" fill="url(#paint78_linear_40_249)"/>
<path d="M35.4875 1.10554C35.6319 1.07909 35.8047 1.19401 35.9496 1.16655C35.6322 1.07893 35.4605 1.7761 35.4875 1.10554Z" fill="url(#paint79_linear_40_249)"/>
<defs>
<linearGradient id="paint0_linear_40_249" x1="1.06233" y1="7.31085" x2="91.9166" y2="5.793" gradientUnits="userSpaceOnUse">
<stop/>
<stop offset="1" stop-color="#313337"/>
</linearGradient>
<linearGradient id="paint1_linear_40_249" x1="-133.883" y1="8.49088" x2="85.7206" y2="4.93075" gradientUnits="userSpaceOnUse">
<stop/>
<stop offset="1" stop-color="#313337"/>
</linearGradient>
<linearGradient id="paint2_linear_40_249" x1="-843.261" y1="20.3128" x2="64.5431" y2="6.98249" gradientUnits="userSpaceOnUse">
<stop/>
<stop offset="1" stop-color="#313337"/>
</linearGradient>
<linearGradient id="paint3_linear_40_249" x1="-111.873" y1="9.68524" x2="83.4047" y2="6.64947" gradientUnits="userSpaceOnUse">
<stop/>
<stop offset="1" stop-color="#313337"/>
</linearGradient>
<linearGradient id="paint4_linear_40_249" x1="15.1695" y1="7.79338" x2="87.0909" y2="6.64452" gradientUnits="userSpaceOnUse">
<stop/>
<stop offset="1" stop-color="#313337"/>
</linearGradient>
<linearGradient id="paint5_linear_40_249" x1="-208.451" y1="11.0156" x2="79.8458" y2="6.33967" gradientUnits="userSpaceOnUse">
<stop/>
<stop offset="1" stop-color="#313337"/>
</linearGradient>
<linearGradient id="paint6_linear_40_249" x1="-15.4964" y1="7.61943" x2="84.9879" y2="6.01119" gradientUnits="userSpaceOnUse">
<stop/>
<stop offset="1" stop-color="#313337"/>
</linearGradient>
<linearGradient id="paint7_linear_40_249" x1="-130.751" y1="9.31454" x2="81.9821" y2="5.87538" gradientUnits="userSpaceOnUse">
<stop/>
<stop offset="1" stop-color="#313337"/>
</linearGradient>
<linearGradient id="paint8_linear_40_249" x1="-227.081" y1="10.6565" x2="79.8418" y2="5.72112" gradientUnits="userSpaceOnUse">
<stop/>
<stop offset="1" stop-color="#313337"/>
</linearGradient>
<linearGradient id="paint9_linear_40_249" x1="-188.733" y1="8.86104" x2="82.3113" y2="4.64453" gradientUnits="userSpaceOnUse">
<stop/>
<stop offset="1" stop-color="#313337"/>
</linearGradient>
<linearGradient id="paint10_linear_40_249" x1="-144.572" y1="9.65856" x2="79.9231" y2="5.97266" gradientUnits="userSpaceOnUse">
<stop/>
<stop offset="1" stop-color="#313337"/>
</linearGradient>
<linearGradient id="paint11_linear_40_249" x1="-136.123" y1="9.55301" x2="79.9592" y2="6.14401" gradientUnits="userSpaceOnUse">
<stop/>
<stop offset="1" stop-color="#313337"/>
</linearGradient>
<linearGradient id="paint12_linear_40_249" x1="-343.924" y1="12.0993" x2="75.8394" y2="5.43973" gradientUnits="userSpaceOnUse">
<stop/>
<stop offset="1" stop-color="#313337"/>
</linearGradient>
<linearGradient id="paint13_linear_40_249" x1="-136.817" y1="9.94453" x2="78.7809" y2="6.41237" gradientUnits="userSpaceOnUse">
<stop/>
<stop offset="1" stop-color="#313337"/>
</linearGradient>
<linearGradient id="paint14_linear_40_249" x1="-366.019" y1="13.8163" x2="71.227" y2="6.82228" gradientUnits="userSpaceOnUse">
<stop/>
<stop offset="1" stop-color="#313337"/>
</linearGradient>
<linearGradient id="paint15_linear_40_249" x1="-112.93" y1="9.62403" x2="77.8639" y2="6.54831" gradientUnits="userSpaceOnUse">
<stop/>
<stop offset="1" stop-color="#313337"/>
</linearGradient>
<linearGradient id="paint16_linear_40_249" x1="-88.582" y1="8.66314" x2="80.4583" y2="5.89255" gradientUnits="userSpaceOnUse">
<stop/>
<stop offset="1" stop-color="#313337"/>
</linearGradient>
<linearGradient id="paint17_linear_40_249" x1="-105.2" y1="9.2904" x2="79.8755" y2="7.91145" gradientUnits="userSpaceOnUse">
<stop/>
<stop offset="1" stop-color="#313337"/>
</linearGradient>
<linearGradient id="paint18_linear_40_249" x1="63.7422" y1="6.38693" x2="84.8813" y2="6.04636" gradientUnits="userSpaceOnUse">
<stop/>
<stop offset="1" stop-color="#313337"/>
</linearGradient>
<linearGradient id="paint19_linear_40_249" x1="-160.721" y1="8.2799" x2="79.7371" y2="4.29526" gradientUnits="userSpaceOnUse">
<stop/>
<stop offset="1" stop-color="#313337"/>
</linearGradient>
<linearGradient id="paint20_linear_40_249" x1="-165.025" y1="9.42127" x2="78.8018" y2="5.50654" gradientUnits="userSpaceOnUse">
<stop/>
<stop offset="1" stop-color="#313337"/>
</linearGradient>
<linearGradient id="paint21_linear_40_249" x1="-29.0174" y1="7.26291" x2="82.3572" y2="5.48018" gradientUnits="userSpaceOnUse">
<stop/>
<stop offset="1" stop-color="#313337"/>
</linearGradient>
<linearGradient id="paint22_linear_40_249" x1="-347.294" y1="12.9159" x2="71.5449" y2="6.56097" gradientUnits="userSpaceOnUse">
<stop/>
<stop offset="1" stop-color="#313337"/>
</linearGradient>
<linearGradient id="paint23_linear_40_249" x1="61.7209" y1="6.40746" x2="83.907" y2="6.0442" gradientUnits="userSpaceOnUse">
<stop/>
<stop offset="1" stop-color="#313337"/>
</linearGradient>
<linearGradient id="paint24_linear_40_249" x1="57.0497" y1="6.28342" x2="80.8127" y2="5.8907" gradientUnits="userSpaceOnUse">
<stop/>
<stop offset="1" stop-color="#313337"/>
</linearGradient>
<linearGradient id="paint25_linear_40_249" x1="-161.364" y1="9.79684" x2="77.206" y2="6.20391" gradientUnits="userSpaceOnUse">
<stop/>
<stop offset="1" stop-color="#313337"/>
</linearGradient>
<linearGradient id="paint26_linear_40_249" x1="-91.6806" y1="8.92494" x2="77.9431" y2="6.21142" gradientUnits="userSpaceOnUse">
<stop/>
<stop offset="1" stop-color="#313337"/>
</linearGradient>
<linearGradient id="paint27_linear_40_249" x1="58.7501" y1="6.57787" x2="83.7637" y2="6.16612" gradientUnits="userSpaceOnUse">
<stop/>
<stop offset="1" stop-color="#313337"/>
</linearGradient>
<linearGradient id="paint28_linear_40_249" x1="-82.6438" y1="8.56586" x2="79.7131" y2="5.95876" gradientUnits="userSpaceOnUse">
<stop/>
<stop offset="1" stop-color="#313337"/>
</linearGradient>
<linearGradient id="paint29_linear_40_249" x1="-799.136" y1="16.0978" x2="56.4102" y2="1.97571" gradientUnits="userSpaceOnUse">
<stop/>
<stop offset="1" stop-color="#313337"/>
</linearGradient>
<linearGradient id="paint30_linear_40_249" x1="-449.279" y1="14.4215" x2="67.001" y2="6.35271" gradientUnits="userSpaceOnUse">
<stop/>
<stop offset="1" stop-color="#313337"/>
</linearGradient>
<linearGradient id="paint31_linear_40_249" x1="-591.513" y1="15.2284" x2="63.852" y2="4.57894" gradientUnits="userSpaceOnUse">
<stop/>
<stop offset="1" stop-color="#313337"/>
</linearGradient>
<linearGradient id="paint32_linear_40_249" x1="47.3102" y1="4.56118" x2="85.1789" y2="3.93946" gradientUnits="userSpaceOnUse">
<stop/>
<stop offset="1" stop-color="#313337"/>
</linearGradient>
<linearGradient id="paint33_linear_40_249" x1="-428.761" y1="11.7861" x2="71.6109" y2="3.60452" gradientUnits="userSpaceOnUse">
<stop/>
<stop offset="1" stop-color="#313337"/>
</linearGradient>
<linearGradient id="paint34_linear_40_249" x1="-291.568" y1="10.3156" x2="73.6249" y2="4.45579" gradientUnits="userSpaceOnUse">
<stop/>
<stop offset="1" stop-color="#313337"/>
</linearGradient>
<linearGradient id="paint35_linear_40_249" x1="-134.607" y1="9.1289" x2="75.261" y2="5.666" gradientUnits="userSpaceOnUse">
<stop/>
<stop offset="1" stop-color="#313337"/>
</linearGradient>
<linearGradient id="paint36_linear_40_249" x1="-48.1615" y1="7.99332" x2="76.9998" y2="5.92635" gradientUnits="userSpaceOnUse">
<stop/>
<stop offset="1" stop-color="#313337"/>
</linearGradient>
<linearGradient id="paint37_linear_40_249" x1="-71.2866" y1="3.9536" x2="36.2643" y2="2.2883" gradientUnits="userSpaceOnUse">
<stop/>
<stop offset="1" stop-color="#313337"/>
</linearGradient>
<linearGradient id="paint38_linear_40_249" x1="2.93264" y1="2.68233" x2="39.5883" y2="2.06982" gradientUnits="userSpaceOnUse">
<stop/>
<stop offset="1" stop-color="#313337"/>
</linearGradient>
<linearGradient id="paint39_linear_40_249" x1="-260.264" y1="11.1539" x2="53.466" y2="6.05067" gradientUnits="userSpaceOnUse">
<stop/>
<stop offset="1" stop-color="#313337"/>
</linearGradient>
<linearGradient id="paint40_linear_40_249" x1="-105.277" y1="6.2541" x2="46.2022" y2="3.76419" gradientUnits="userSpaceOnUse">
<stop/>
<stop offset="1" stop-color="#313337"/>
</linearGradient>
<linearGradient id="paint41_linear_40_249" x1="-161.915" y1="5.81212" x2="44.1585" y2="2.54219" gradientUnits="userSpaceOnUse">
<stop/>
<stop offset="1" stop-color="#313337"/>
</linearGradient>
<linearGradient id="paint42_linear_40_249" x1="-102.282" y1="3.53309" x2="29.029" y2="1.36164" gradientUnits="userSpaceOnUse">
<stop/>
<stop offset="1" stop-color="#313337"/>
</linearGradient>
<linearGradient id="paint43_linear_40_249" x1="-273.528" y1="11.4285" x2="63.2289" y2="6.13329" gradientUnits="userSpaceOnUse">
<stop/>
<stop offset="1" stop-color="#313337"/>
</linearGradient>
<linearGradient id="paint44_linear_40_249" x1="-57.8309" y1="7.65978" x2="37.1792" y2="6.09742" gradientUnits="userSpaceOnUse">
<stop/>
<stop offset="1" stop-color="#313337"/>
</linearGradient>
<linearGradient id="paint45_linear_40_249" x1="-328.451" y1="12.7374" x2="61.1558" y2="6.92555" gradientUnits="userSpaceOnUse">
<stop/>
<stop offset="1" stop-color="#313337"/>
</linearGradient>
<linearGradient id="paint46_linear_40_249" x1="-27.2207" y1="3.59061" x2="8.23554" y2="3.02221" gradientUnits="userSpaceOnUse">
<stop/>
<stop offset="1" stop-color="#313337"/>
</linearGradient>
<linearGradient id="paint47_linear_40_249" x1="-186.792" y1="10.3948" x2="-2.69576" y2="8.35391" gradientUnits="userSpaceOnUse">
<stop/>
<stop offset="1" stop-color="#313337"/>
</linearGradient>
<linearGradient id="paint48_linear_40_249" x1="27.6776" y1="7.15479" x2="76.3906" y2="6.4492" gradientUnits="userSpaceOnUse">
<stop/>
<stop offset="1" stop-color="#313337"/>
</linearGradient>
<linearGradient id="paint49_linear_40_249" x1="37.0331" y1="5.08045" x2="77.2868" y2="4.40794" gradientUnits="userSpaceOnUse">
<stop/>
<stop offset="1" stop-color="#313337"/>
</linearGradient>
<linearGradient id="paint50_linear_40_249" x1="48.2744" y1="4.09059" x2="69.9021" y2="3.73546" gradientUnits="userSpaceOnUse">
<stop/>
<stop offset="1" stop-color="#313337"/>
</linearGradient>
<linearGradient id="paint51_linear_40_249" x1="-54.8181" y1="8.2969" x2="74.165" y2="6.31053" gradientUnits="userSpaceOnUse">
<stop/>
<stop offset="1" stop-color="#313337"/>
</linearGradient>
<linearGradient id="paint52_linear_40_249" x1="-17.0525" y1="7.84342" x2="75.3627" y2="6.43577" gradientUnits="userSpaceOnUse">
<stop/>
<stop offset="1" stop-color="#313337"/>
</linearGradient>
<linearGradient id="paint53_linear_40_249" x1="-90.1695" y1="9.06054" x2="72.9615" y2="6.88345" gradientUnits="userSpaceOnUse">
<stop/>
<stop offset="1" stop-color="#313337"/>
</linearGradient>
<linearGradient id="paint54_linear_40_249" x1="-61.0701" y1="4.94078" x2="19.5815" y2="3.64743" gradientUnits="userSpaceOnUse">
<stop/>
<stop offset="1" stop-color="#313337"/>
</linearGradient>
<linearGradient id="paint55_linear_40_249" x1="43.3739" y1="2.40889" x2="58.2579" y2="2.16501" gradientUnits="userSpaceOnUse">
<stop/>
<stop offset="1" stop-color="#313337"/>
</linearGradient>
<linearGradient id="paint56_linear_40_249" x1="-310.297" y1="6.73838" x2="48.0214" y2="0.770038" gradientUnits="userSpaceOnUse">
<stop/>
<stop offset="1" stop-color="#313337"/>
</linearGradient>
<linearGradient id="paint57_linear_40_249" x1="-1.87489" y1="3.30003" x2="48.7913" y2="2.45388" gradientUnits="userSpaceOnUse">
<stop/>
<stop offset="1" stop-color="#313337"/>
</linearGradient>
<linearGradient id="paint58_linear_40_249" x1="8.71276" y1="2.35462" x2="32.2636" y2="1.96403" gradientUnits="userSpaceOnUse">
<stop/>
<stop offset="1" stop-color="#313337"/>
</linearGradient>
<linearGradient id="paint59_linear_40_249" x1="-71.1569" y1="4.24895" x2="64.3872" y2="2.05888" gradientUnits="userSpaceOnUse">
<stop/>
<stop offset="1" stop-color="#313337"/>
</linearGradient>
<linearGradient id="paint60_linear_40_249" x1="-145.201" y1="9.83367" x2="72.8908" y2="6.38353" gradientUnits="userSpaceOnUse">
<stop/>
<stop offset="1" stop-color="#313337"/>
</linearGradient>
<linearGradient id="paint61_linear_40_249" x1="-90.9633" y1="6.4814" x2="77.3888" y2="3.76861" gradientUnits="userSpaceOnUse">
<stop/>
<stop offset="1" stop-color="#313337"/>
</linearGradient>
<linearGradient id="paint62_linear_40_249" x1="-236.17" y1="9.76557" x2="71.0063" y2="4.85507" gradientUnits="userSpaceOnUse">
<stop/>
<stop offset="1" stop-color="#313337"/>
</linearGradient>
<linearGradient id="paint63_linear_40_249" x1="-67.6803" y1="7.29846" x2="76.1326" y2="5.10701" gradientUnits="userSpaceOnUse">
<stop/>
<stop offset="1" stop-color="#313337"/>
</linearGradient>
<linearGradient id="paint64_linear_40_249" x1="-166.739" y1="9.65929" x2="70.353" y2="5.79" gradientUnits="userSpaceOnUse">
<stop/>
<stop offset="1" stop-color="#313337"/>
</linearGradient>
<linearGradient id="paint65_linear_40_249" x1="-64.9568" y1="5.85986" x2="75.6458" y2="3.53079" gradientUnits="userSpaceOnUse">
<stop/>
<stop offset="1" stop-color="#313337"/>
</linearGradient>
<linearGradient id="paint66_linear_40_249" x1="-240.539" y1="9.27999" x2="69.2654" y2="4.70485" gradientUnits="userSpaceOnUse">
<stop/>
<stop offset="1" stop-color="#313337"/>
</linearGradient>
<linearGradient id="paint67_linear_40_249" x1="-123.791" y1="7.55063" x2="72.9244" y2="4.83026" gradientUnits="userSpaceOnUse">
<stop/>
<stop offset="1" stop-color="#313337"/>
</linearGradient>
<linearGradient id="paint68_linear_40_249" x1="-171.965" y1="7.85375" x2="72.077" y2="4.388" gradientUnits="userSpaceOnUse">
<stop/>
<stop offset="1" stop-color="#313337"/>
</linearGradient>
<linearGradient id="paint69_linear_40_249" x1="-216.919" y1="8.54701" x2="65.5699" y2="4.07116" gradientUnits="userSpaceOnUse">
<stop/>
<stop offset="1" stop-color="#313337"/>
</linearGradient>
<linearGradient id="paint70_linear_40_249" x1="-54.111" y1="4.44678" x2="71.4226" y2="2.35184" gradientUnits="userSpaceOnUse">
<stop/>
<stop offset="1" stop-color="#313337"/>
</linearGradient>
<linearGradient id="paint71_linear_40_249" x1="-229.89" y1="7.23119" x2="65.3539" y2="2.5038" gradientUnits="userSpaceOnUse">
<stop/>
<stop offset="1" stop-color="#313337"/>
</linearGradient>
<linearGradient id="paint72_linear_40_249" x1="-1.93355" y1="3.94046" x2="65.879" y2="2.79456" gradientUnits="userSpaceOnUse">
<stop/>
<stop offset="1" stop-color="#313337"/>
</linearGradient>
<linearGradient id="paint73_linear_40_249" x1="-353.226" y1="7.79326" x2="50.9022" y2="1.2279" gradientUnits="userSpaceOnUse">
<stop/>
<stop offset="1" stop-color="#313337"/>
</linearGradient>
<linearGradient id="paint74_linear_40_249" x1="-37.5207" y1="3.77425" x2="59.9087" y2="2.21223" gradientUnits="userSpaceOnUse">
<stop/>
<stop offset="1" stop-color="#313337"/>
</linearGradient>
<linearGradient id="paint75_linear_40_249" x1="-207.927" y1="10.8885" x2="-4.69576" y2="7.61865" gradientUnits="userSpaceOnUse">
<stop/>
<stop offset="1" stop-color="#313337"/>
</linearGradient>
<linearGradient id="paint76_linear_40_249" x1="-174.344" y1="9.48035" x2="-4.32624" y2="6.65886" gradientUnits="userSpaceOnUse">
<stop/>
<stop offset="1" stop-color="#313337"/>
</linearGradient>
<linearGradient id="paint77_linear_40_249" x1="-136.058" y1="3.8749" x2="38.1299" y2="1.0419" gradientUnits="userSpaceOnUse">
<stop/>
<stop offset="1" stop-color="#313337"/>
</linearGradient>
<linearGradient id="paint78_linear_40_249" x1="-51.9578" y1="2.71188" x2="36.4925" y2="1.22874" gradientUnits="userSpaceOnUse">
<stop/>
<stop offset="1" stop-color="#313337"/>
</linearGradient>
<linearGradient id="paint79_linear_40_249" x1="-276.452" y1="6.11747" x2="26.9517" y2="1.3952" gradientUnits="userSpaceOnUse">
<stop/>
<stop offset="1" stop-color="#313337"/>
</linearGradient>
</defs>
</svg>
